<svg width="42" height="48" viewBox="0 0 42 48" fill="none" xmlns="http://www.w3.org/2000/svg">
<g id="Group">
<path id="Vector" d="M12.1588 0.35224L14.3708 4.20702C10.2617 6.2109 7.41994 10.0507 7.41994 14.5384H33.9483C33.9483 10.0687 31.1065 6.2139 27.0005 4.20702L29.2125 0.35224C29.2125 0.35224 29.3707 0.197749 29.0543 0.0432575C28.8961 -0.111234 28.7378 0.197749 28.7378 0.197749L26.3676 4.05403C24.53 3.2474 22.5391 2.82733 20.5243 2.8211C18.5096 2.82733 16.5187 3.2474 14.681 4.05403L12.3155 0.199249C12.3155 0.199249 12.1588 0.0462573 11.999 0.0462573C12.0157 0.16339 12.0713 0.271942 12.1572 0.35524L12.1588 0.35224ZM14.3861 7.90581C15.0006 7.90581 15.6488 8.50577 15.6488 9.13873C15.6488 9.7717 15.0343 10.3717 14.3861 10.3717C14.2196 10.3741 14.0543 10.3439 13.9 10.2828C13.7457 10.2217 13.6055 10.1309 13.4877 10.016C13.37 9.90098 13.2771 9.7641 13.2145 9.61341C13.1519 9.46273 13.121 9.30132 13.1234 9.13873C13.121 8.97615 13.1519 8.81474 13.2145 8.66406C13.2771 8.51338 13.37 8.37649 13.4877 8.26151C13.6055 8.14654 13.7457 8.05581 13.9 7.99471C14.0543 7.93361 14.2196 7.90338 14.3861 7.90581ZM27.0189 7.90581C27.6334 7.90581 28.2816 8.50577 28.2816 9.13873C28.2816 9.7717 27.6672 10.3717 27.0189 10.3717C26.8524 10.3741 26.6871 10.3439 26.5328 10.2828C26.3785 10.2217 26.2383 10.1309 26.1206 10.016C26.0028 9.90098 25.9099 9.7641 25.8473 9.61341C25.7848 9.46273 25.7538 9.30132 25.7563 9.13873C25.7538 8.97615 25.7848 8.81474 25.8473 8.66406C25.9099 8.51338 26.0028 8.37649 26.1206 8.26151C26.2383 8.14654 26.3785 8.05581 26.5328 7.99471C26.6871 7.93361 26.8524 7.90338 27.0189 7.90581ZM7.26172 16.0803V35.8192C7.26172 36.7446 8.52439 38.1321 9.47369 38.1321H12.6319V44.9162C12.6319 46.6111 13.8946 48 15.4737 48C17.0528 48 18.3154 46.6126 18.3154 44.9162V38.1291H22.893V44.9132C22.893 46.6081 24.1557 47.997 25.7348 47.997C27.3139 47.997 28.5765 46.6096 28.5765 44.9132V38.1291H31.7348C32.6825 38.1291 33.9467 36.8961 33.9467 35.8162V16.0803H7.26172Z" fill="#A4C639"/>
<path id="Vector_2" d="M2.84177 15.6172C4.42088 15.6172 5.68354 17.0046 5.68354 18.701V30.4198C5.68354 32.1147 4.42088 33.5037 2.84177 33.5037C1.26267 33.5037 0 32.1162 0 30.4198V18.701C0 17.0061 1.26267 15.6172 2.84177 15.6172Z" fill="#A4C639"/>
<path id="Vector_3" d="M38.5293 15.6172C40.1084 15.6172 41.371 17.0046 41.371 18.701V30.4198C41.371 32.1147 40.1084 33.5037 38.5293 33.5037C36.9502 33.5037 35.6875 32.1162 35.6875 30.4198V18.701C35.6875 17.0061 36.9502 15.6172 38.5293 15.6172Z" fill="#A4C639"/>
</g>
</svg>
