<svg width="58" height="62" viewBox="0 0 58 62" fill="none" xmlns="http://www.w3.org/2000/svg">
<g id="Component 9">
<g id="Group">
<g id="Clip path group">
<mask id="mask0_8214_11510" style="mask-type:luminance" maskUnits="userSpaceOnUse" x="22" y="18" width="11" height="30">
<g id="A">
<path id="Vector" d="M22.9297 19.5876C24.87 29.496 25.6059 47.1719 31.2865 47.1719C31.7189 47.1719 32.1596 47.1025 32.5932 46.9623C27.4378 44.9538 26.8216 27.4709 23.6735 18.4175C23.4222 18.7992 23.1758 19.1895 22.9343 19.5883" fill="white"/>
</g>
</mask>
<g mask="url(#mask0_8214_11510)">
<g id="Group_2">
<g id="Clip path group_2">
<mask id="mask1_8214_11510" style="mask-type:luminance" maskUnits="userSpaceOnUse" x="22" y="18" width="11" height="30">
<g id="B">
<path id="Vector_2" d="M32.6008 47.1719H22.9414V18.4161H32.6008V47.1719Z" fill="white"/>
</g>
</mask>
<g mask="url(#mask1_8214_11510)">
<g id="Group_3">
<g id="Clip path group_3">
<mask id="mask2_8214_11510" style="mask-type:luminance" maskUnits="userSpaceOnUse" x="22" y="18" width="11" height="30">
<g id="C">
<path id="Vector_3" d="M32.6008 18.4161V47.1719H22.9414V18.4161H32.6008Z" fill="white"/>
</g>
</mask>
<g mask="url(#mask2_8214_11510)">
<g id="Group_4">
<path id="Vector_4" d="M32.6008 47.1719H22.9414V18.4161H32.6008V47.1719Z" fill="url(#paint0_linear_8214_11510)"/>
</g>
</g>
</g>
</g>
</g>
</g>
</g>
</g>
</g>
<g id="Clip path group_4">
<mask id="mask3_8214_11510" style="mask-type:luminance" maskUnits="userSpaceOnUse" x="23" y="17" width="11" height="30">
<g id="D">
<path id="Vector_5" d="M23.6684 18.4162C26.8165 27.4703 27.4281 44.9532 32.5881 46.9609C32.9935 46.836 33.4001 46.6486 33.8071 46.4113C29.1756 42.622 27.895 25.6464 24.3195 17.4723C24.1033 17.7735 23.8854 18.0879 23.668 18.4162" fill="white"/>
</g>
</mask>
<g mask="url(#mask3_8214_11510)">
<g id="Group_5">
<g id="Clip path group_5">
<mask id="mask4_8214_11510" style="mask-type:luminance" maskUnits="userSpaceOnUse" x="23" y="17" width="11" height="30">
<g id="E">
<path id="Vector_6" d="M33.8302 46.9844H23.6914V17.4888H33.8302V46.9844Z" fill="white"/>
</g>
</mask>
<g mask="url(#mask4_8214_11510)">
<g id="Group_6">
<g id="Clip path group_6">
<mask id="mask5_8214_11510" style="mask-type:luminance" maskUnits="userSpaceOnUse" x="23" y="17" width="11" height="30">
<g id="F">
<path id="Vector_7" d="M33.8298 17.4966V46.9922H23.6914V17.4966H33.8298Z" fill="white"/>
</g>
</mask>
<g mask="url(#mask5_8214_11510)">
<g id="Group_7">
<path id="Vector_8" d="M33.8302 46.9844H23.6914V17.4888H33.8302V46.9844Z" fill="url(#paint1_linear_8214_11510)"/>
</g>
</g>
</g>
</g>
</g>
</g>
</g>
</g>
</g>
</g>
<path id="Vector_9" d="M37.3204 45.0223C37.0929 44.6548 36.8777 44.2665 36.6758 43.8594C35.7152 44.9963 34.7569 45.8575 33.8047 46.417C34.1429 46.6928 34.499 46.8966 34.8748 47.0165C35.1669 47.1164 35.4692 47.1663 35.7876 47.1663C36.8553 47.1663 37.6993 46.9545 38.4181 46.3801C38.0231 46.0224 37.6592 45.5608 37.3198 45.0113" fill="#1969BC"/>
<g id="Group_8">
<g id="Clip path group_7">
<mask id="mask6_8214_11510" style="mask-type:luminance" maskUnits="userSpaceOnUse" x="27" y="13" width="11" height="31">
<g id="g">
<path id="Vector_10" d="M27.891 13.8641C32.5546 17.9352 32.9633 36.3724 36.6802 43.8594C36.9335 43.5606 37.1814 43.2493 37.4236 42.9259C35.0954 34.3202 34.4285 15.4014 29.2231 13.243C28.7691 13.3849 28.3232 13.5923 27.8906 13.8627" fill="white"/>
</g>
</mask>
<g mask="url(#mask6_8214_11510)">
<g id="Group_9">
<g id="Clip path group_8">
<mask id="mask7_8214_11510" style="mask-type:luminance" maskUnits="userSpaceOnUse" x="27" y="13" width="11" height="31">
<g id="h">
<path id="Vector_11" d="M37.4516 43.8906H27.9141V13.2742H37.4475V43.8906H37.4516Z" fill="white"/>
</g>
</mask>
<g mask="url(#mask7_8214_11510)">
<g id="Group_10">
<g id="Clip path group_9">
<mask id="mask8_8214_11510" style="mask-type:luminance" maskUnits="userSpaceOnUse" x="27" y="13" width="11" height="31">
<g id="i">
<path id="Vector_12" d="M37.4516 13.2728V43.8906H27.9141V13.2742H37.4475L37.4516 13.2728Z" fill="white"/>
</g>
</mask>
<g mask="url(#mask8_8214_11510)">
<g id="Group_11">
<path id="Vector_13" d="M37.4516 43.8906H27.9141V13.2742H37.4475V43.8906H37.4516Z" fill="url(#paint2_linear_8214_11510)"/>
</g>
</g>
</g>
</g>
</g>
</g>
</g>
</g>
</g>
<g id="Clip path group_10">
<mask id="mask9_8214_11510" style="mask-type:luminance" maskUnits="userSpaceOnUse" x="24" y="13" width="13" height="34">
<g id="j">
<path id="Vector_14" d="M24.3203 17.4829C27.8959 25.657 29.1756 42.6339 33.808 46.4219C34.7642 45.8611 35.718 44.9991 36.6788 43.863C32.9578 36.3677 32.5528 17.9382 27.8896 13.8678C26.7055 14.602 25.5173 15.8263 24.3211 17.4767" fill="white"/>
</g>
</mask>
<g mask="url(#mask9_8214_11510)">
<g id="Group_12">
<g id="Clip path group_11">
<mask id="mask10_8214_11510" style="mask-type:luminance" maskUnits="userSpaceOnUse" x="24" y="13" width="13" height="34">
<g id="k">
<path id="Vector_15" d="M36.6827 46.4219H24.3242V13.8726H36.6827V46.4219Z" fill="white"/>
</g>
</mask>
<g mask="url(#mask10_8214_11510)">
<g id="Group_13">
<g id="Clip path group_12">
<mask id="mask11_8214_11510" style="mask-type:luminance" maskUnits="userSpaceOnUse" x="24" y="13" width="13" height="34">
<g id="l">
<path id="Vector_16" d="M36.6827 13.8671V46.4219H24.3242V13.8671H36.6827Z" fill="white"/>
</g>
</mask>
<g mask="url(#mask11_8214_11510)">
<g id="Group_14">
<path id="Vector_17" d="M36.6827 46.4219H24.3242V13.8726H36.6827V46.4219Z" fill="url(#paint3_linear_8214_11510)"/>
</g>
</g>
</g>
</g>
</g>
</g>
</g>
</g>
</g>
</g>
<g id="Clip path group_13">
<mask id="mask12_8214_11510" style="mask-type:luminance" maskUnits="userSpaceOnUse" x="7" y="13" width="11" height="27">
<g id="AZ">
<path id="Vector_18" d="M7.47266 39.8281C11.9704 25.3621 14.1011 16.2067 17.8617 13.7284C13.9843 16.2615 9.61715 25.8167 7.47266 39.8281Z" fill="white"/>
</g>
</mask>
<g mask="url(#mask12_8214_11510)">
<g id="Group_15">
<g id="Clip path group_14">
<mask id="mask13_8214_11510" style="mask-type:luminance" maskUnits="userSpaceOnUse" x="7" y="13" width="11" height="27">
<g id="Aa">
<path id="Vector_19" d="M7.46484 13.744H17.8539V39.8438H7.46484V13.744Z" fill="white"/>
</g>
</mask>
<g mask="url(#mask13_8214_11510)">
<g id="Group_16">
<g id="Clip path group_15">
<mask id="mask14_8214_11510" style="mask-type:luminance" maskUnits="userSpaceOnUse" x="7" y="13" width="11" height="27">
<g id="Ab">
<path id="Vector_20" d="M7.46484 39.8438V13.7447H17.8539V39.8438H7.46484Z" fill="white"/>
</g>
</mask>
<g mask="url(#mask14_8214_11510)">
<g id="Group_17">
<path id="Vector_21" d="M7.46484 13.744H17.8539V39.8438H7.46484V13.744Z" fill="url(#paint4_linear_8214_11510)"/>
</g>
</g>
</g>
</g>
</g>
</g>
</g>
</g>
</g>
<g id="Group_18">
<g id="Mask group">
<mask id="mask15_8214_11510" style="mask-type:luminance" maskUnits="userSpaceOnUse" x="-1" y="16" width="23" height="45">
<g id="Group_19">
<g id="Clip path group_16">
<mask id="mask16_8214_11510" style="mask-type:luminance" maskUnits="userSpaceOnUse" x="-13" y="0" width="47" height="78">
<g id="Ac">
<path id="Vector_22" d="M-12.3867 0.000694275H33.2348V77.1562H-12.3867V0.000694275Z" fill="white"/>
</g>
</mask>
<g mask="url(#mask16_8214_11510)">
<g id="Group_20">
<g id="Clip path group_17">
<mask id="mask17_8214_11510" style="mask-type:luminance" maskUnits="userSpaceOnUse" x="-13" y="-1" width="47" height="79">
<g id="Ad">
<path id="Vector_23" d="M-12.8008 -0.692009H33.6522V77.8516H-12.8008V-0.692009Z" fill="white"/>
</g>
</mask>
<g mask="url(#mask17_8214_11510)">
<g id="Group_21">
<g id="Clip path group_18">
<mask id="mask18_8214_11510" style="mask-type:luminance" maskUnits="userSpaceOnUse" x="-1" y="16" width="23" height="45">
<g id="Ae">
<path id="Vector_24" d="M-0.96875 60.875H21.8025V16.1063H-0.96875V60.875Z" fill="white"/>
</g>
</mask>
<g mask="url(#mask18_8214_11510)">
<g id="Group_22">
<g id="Clip path group_19">
<mask id="mask19_8214_11510" style="mask-type:luminance" maskUnits="userSpaceOnUse" x="-13" y="0" width="47" height="78">
<g id="Af">
<path id="Vector_25" d="M-12.3828 0.000694275H33.2387V77.1562H-12.3828V0.000694275Z" fill="white"/>
</g>
</mask>
<g mask="url(#mask19_8214_11510)">
<g id="Group_23">
<g id="Clip path group_20">
<mask id="mask20_8214_11510" style="mask-type:luminance" maskUnits="userSpaceOnUse" x="-1" y="16" width="23" height="45">
<g id="Ag">
<path id="Vector_26" d="M-0.964844 60.875H21.8064V16.1063H-0.964844V60.875Z" fill="white"/>
</g>
</mask>
<g mask="url(#mask20_8214_11510)">
<g id="Group_24">
<g id="Clip path group_21">
<mask id="mask21_8214_11510" style="mask-type:luminance" maskUnits="userSpaceOnUse" x="-1" y="16" width="23" height="45">
<g id="Ah">
<path id="Vector_27" d="M-0.960938 50.6973L9.94033 60.875L21.8111 26.2867L10.9115 16.1056L-0.960522 50.6966L-0.960938 50.6973Z" fill="white"/>
</g>
</mask>
<g mask="url(#mask21_8214_11510)">
<g id="Group_25">
<g id="Clip path group_22">
<mask id="mask22_8214_11510" style="mask-type:luminance" maskUnits="userSpaceOnUse" x="-13" y="0" width="47" height="78">
<g id="Ai">
<path id="Vector_28" d="M33.236 26.8597L16.3852 77.1562L-12.3867 50.2979L4.4641 0.00139618L33.236 26.8597Z" fill="white"/>
</g>
</mask>
<g mask="url(#mask22_8214_11510)">
<g id="Group_26">
<g id="Clip path group_23">
<mask id="mask23_8214_11510" style="mask-type:luminance" maskUnits="userSpaceOnUse" x="-13" y="0" width="47" height="78">
<g id="Aj">
<path id="Vector_29" d="M33.2364 26.8597L16.3856 77.1562L-12.3867 50.2979L4.46409 0.00139618L33.2364 26.8597Z" fill="white"/>
</g>
</mask>
<g mask="url(#mask23_8214_11510)">
<g id="Group_27">
<path id="Vector_30" d="M33.236 26.8597L16.3852 77.1562L-12.3867 50.2979L4.4641 0.00139618L33.236 26.8597Z" fill="url(#paint5_linear_8214_11510)"/>
</g>
</g>
</g>
</g>
</g>
</g>
</g>
</g>
</g>
</g>
</g>
</g>
</g>
</g>
</g>
</g>
</g>
</g>
</g>
</g>
</g>
</g>
</g>
</g>
</g>
</mask>
<g mask="url(#mask15_8214_11510)">
<g id="Group_28">
<g id="Clip path group_24">
<mask id="mask24_8214_11510" style="mask-type:luminance" maskUnits="userSpaceOnUse" x="9" y="27" width="10" height="22">
<g id="Am">
<path id="Vector_31" d="M9.16406 27.8567H18.8247V48.0781H9.16406V27.8567Z" fill="white"/>
</g>
</mask>
<g mask="url(#mask24_8214_11510)">
<g id="Group_29">
<g id="Clip path group_25">
<mask id="mask25_8214_11510" style="mask-type:luminance" maskUnits="userSpaceOnUse" x="9" y="27" width="10" height="22">
<g id="An">
<path id="Vector_32" d="M9.16406 48.0781H18.8222V27.8809H9.16406V48.0781Z" fill="white"/>
</g>
</mask>
<g mask="url(#mask25_8214_11510)">
<g id="Group_30">
<g id="Clip path group_26">
<mask id="mask26_8214_11510" style="mask-type:luminance" maskUnits="userSpaceOnUse" x="9" y="27" width="10" height="22">
<g id="Ao">
<path id="Vector_33" d="M9.5202 48.0261L9.43913 48.042C9.43248 48.0448 9.42832 48.0448 9.4225 48.0455L9.35348 48.0573C9.35016 48.0573 9.34517 48.0587 9.34226 48.0587L9.17679 48.0781H9.16016C13.7119 47.8651 15.7928 44.0612 16.8247 38.5445L18.8191 27.8816C16.9124 32.3601 14.9974 37.6985 13.0712 43.6815C12.1441 46.5652 10.7301 47.7762 9.5202 48.0261Z" fill="white"/>
</g>
</mask>
<g mask="url(#mask26_8214_11510)">
<g id="Group_31">
<g id="Clip path group_27">
<mask id="mask27_8214_11510" style="mask-type:luminance" maskUnits="userSpaceOnUse" x="9" y="27" width="10" height="22">
<g id="Ap">
<path id="Vector_34" d="M9.16797 27.8575H18.8261V48.0547H9.16797V27.8575Z" fill="white"/>
</g>
</mask>
<g mask="url(#mask27_8214_11510)">
<g id="Group_32">
<g id="Clip path group_28">
<mask id="mask28_8214_11510" style="mask-type:luminance" maskUnits="userSpaceOnUse" x="9" y="27" width="10" height="22">
<g id="Aq">
<path id="Vector_35" d="M9.16797 48.0547V27.8575H18.8269V48.0547H9.16797Z" fill="white"/>
</g>
</mask>
<g mask="url(#mask28_8214_11510)">
<g id="Group_33">
<path id="Vector_36" d="M9.16797 27.8575H18.8261V48.0547H9.16797V27.8575Z" fill="url(#paint6_linear_8214_11510)"/>
</g>
</g>
</g>
</g>
</g>
</g>
</g>
</g>
</g>
</g>
</g>
</g>
</g>
</g>
</g>
</g>
</g>
</g>
<g id="Clip path group_29">
<mask id="mask29_8214_11510" style="mask-type:luminance" maskUnits="userSpaceOnUse" x="9" y="19" width="12" height="30">
<g id="Ar">
<path id="Vector_37" d="M9.51646 48.0207V48.0234C10.7272 47.7667 12.1358 46.5639 13.0671 43.6789C14.9933 37.6986 16.9087 32.3575 18.8129 27.879C19.5064 24.2465 20.0785 21.4677 20.6393 19.3537C16.8434 25.3917 13.0309 35.416 9.51562 48.0207" fill="white"/>
</g>
</mask>
<g mask="url(#mask29_8214_11510)">
<g id="Group_34">
<g id="Clip path group_30">
<mask id="mask30_8214_11510" style="mask-type:luminance" maskUnits="userSpaceOnUse" x="9" y="19" width="12" height="30">
<g id="As">
<path id="Vector_38" d="M9.53906 19.3763H20.6623V48.0391H9.53906V19.3763Z" fill="white"/>
</g>
</mask>
<g mask="url(#mask30_8214_11510)">
<g id="Group_35">
<g id="Clip path group_31">
<mask id="mask31_8214_11510" style="mask-type:luminance" maskUnits="userSpaceOnUse" x="9" y="19" width="12" height="30">
<g id="At">
<path id="Vector_39" d="M9.53906 48.0469V19.3841H20.6623V48.0469H9.53906Z" fill="white"/>
</g>
</mask>
<g mask="url(#mask31_8214_11510)">
<g id="Group_36">
<path id="Vector_40" d="M9.53906 19.3763H20.6623V48.0391H9.53906V19.3763Z" fill="url(#paint7_linear_8214_11510)"/>
</g>
</g>
</g>
</g>
</g>
</g>
</g>
</g>
</g>
</g>
<path id="Vector_41" d="M7.47771 39.8281L4.8125 48.0925H6.52906C6.74563 45.3088 7.06221 42.5494 7.47711 39.8291" fill="#05A1E6"/>
<g id="Group_37">
<g id="Clip path group_32">
<mask id="mask32_8214_11510" style="mask-type:luminance" maskUnits="userSpaceOnUse" x="6" y="13" width="16" height="36">
<g id="Au">
<path id="Vector_42" d="M19.3205 13.098C19.3084 13.1021 19.2962 13.1046 19.2839 13.1056L19.2207 13.1209L19.1825 13.1278L19.1147 13.1472L19.0856 13.1542L18.9392 13.1972L18.9226 13.2014L18.8519 13.225L18.8166 13.2416L18.7472 13.2638C18.7367 13.2697 18.726 13.2741 18.7151 13.277L18.474 13.3811C18.4673 13.3853 18.4561 13.3894 18.4461 13.395C18.422 13.404 18.3987 13.4186 18.3734 13.4311L18.3401 13.447C18.3156 13.4568 18.2914 13.4691 18.2678 13.4838C18.2586 13.4873 18.2512 13.4935 18.2428 13.4935L18.0757 13.5907L17.9955 13.6393L17.963 13.6622L17.8923 13.7038C17.884 13.7108 17.8749 13.7163 17.8687 13.7233C14.1081 16.2009 11.9773 25.357 7.4796 39.823C7.06422 42.543 6.74752 45.3023 6.53125 48.0859H6.77239L9.03538 48.079L9.1784 48.0734C9.23245 48.0686 9.28733 48.0637 9.34388 48.054C9.3472 48.054 9.35219 48.0526 9.35427 48.0526C9.37797 48.0457 9.40084 48.0436 9.42329 48.0408C9.42952 48.0401 9.43285 48.0401 9.43992 48.0374C9.46486 48.0332 9.49314 48.0283 9.52099 48.0214V48.0186C13.0367 35.4139 16.8484 25.3834 20.6447 19.3517C21.0625 17.7721 21.4733 16.5666 21.9244 15.654C21.6604 14.91 21.3714 14.2896 21.0496 13.8371C21.0455 13.8343 21.043 13.8329 21.0401 13.8274C21.022 13.8145 21.0042 13.8004 20.9869 13.785C20.9695 13.7689 20.9517 13.7538 20.9336 13.7399C20.916 13.7276 20.8988 13.7137 20.8821 13.6983C20.8592 13.6872 20.8418 13.6705 20.821 13.6546C20.8043 13.6448 20.7898 13.6316 20.774 13.6199C20.7407 13.599 20.7062 13.5747 20.6742 13.5504C20.6588 13.5421 20.6451 13.5324 20.6318 13.5227C20.6065 13.5086 20.5817 13.4924 20.5574 13.4741C20.5449 13.4672 20.5312 13.4602 20.5171 13.4533L20.4144 13.3943C20.4085 13.3915 20.4069 13.3915 20.4052 13.3874C20.3657 13.3672 20.3259 13.3484 20.2859 13.3312C20.2767 13.3242 20.2693 13.3214 20.2589 13.3173C20.2231 13.302 20.1923 13.2846 20.1591 13.2701C20.1508 13.2687 20.1425 13.2631 20.1354 13.261C20.0543 13.2243 19.9691 13.1958 19.8847 13.1694C19.8772 13.1681 19.8672 13.1639 19.8589 13.1611C19.8223 13.1507 19.787 13.1403 19.7508 13.1334C19.7442 13.1278 19.7371 13.1278 19.73 13.125L19.6053 13.0973C19.5982 13.0959 19.5907 13.0931 19.5824 13.0931C19.5492 13.0834 19.5159 13.0806 19.4843 13.075L19.3263 13.0986" fill="white"/>
</g>
</mask>
<g mask="url(#mask32_8214_11510)">
<g id="Group_38">
<g id="Clip path group_33">
<mask id="mask33_8214_11510" style="mask-type:luminance" maskUnits="userSpaceOnUse" x="2" y="8" width="24" height="45">
<g id="Av">
<path id="Vector_43" d="M6.95743 52.4837L2.90625 14.1339L21.4218 8.68378L25.473 47.035L6.95743 52.4844V52.4837Z" fill="white"/>
</g>
</mask>
<g mask="url(#mask33_8214_11510)">
<g id="Group_39">
<g id="Clip path group_34">
<mask id="mask34_8214_11510" style="mask-type:luminance" maskUnits="userSpaceOnUse" x="2" y="8" width="24" height="45">
<g id="Aw">
<path id="Vector_44" d="M6.95743 52.4837L2.90625 14.1339L21.4218 8.68448L25.473 47.0343L6.95743 52.4844V52.4837Z" fill="white"/>
</g>
</mask>
<g mask="url(#mask34_8214_11510)">
<g id="Group_40">
<path id="Vector_45" d="M6.95743 52.4837L2.90625 14.1339L21.4218 8.68378L25.473 47.035L6.95743 52.4844V52.4837Z" fill="url(#paint8_linear_8214_11510)"/>
</g>
</g>
</g>
</g>
</g>
</g>
</g>
</g>
</g>
<g id="Clip path group_35">
<mask id="mask35_8214_11510" style="mask-type:luminance" maskUnits="userSpaceOnUse" x="42" y="13" width="8" height="21">
<g id="Ax">
<path id="Vector_46" d="M44.914 21.6812L42.7383 33.2656C45.1081 27.8107 47.4514 20.9511 49.6782 13.0324C47.0813 14.3954 45.6952 17.5115 44.9135 21.6812" fill="white"/>
</g>
</mask>
<g mask="url(#mask35_8214_11510)">
<g id="Group_41">
<g id="Clip path group_36">
<mask id="mask36_8214_11510" style="mask-type:luminance" maskUnits="userSpaceOnUse" x="42" y="13" width="8" height="21">
<g id="Ay">
<path id="Vector_47" d="M42.7383 13.0331H49.6782V33.2656H42.7383V13.0331Z" fill="white"/>
</g>
</mask>
<g mask="url(#mask36_8214_11510)">
<g id="Group_42">
<g id="Clip path group_37">
<mask id="mask37_8214_11510" style="mask-type:luminance" maskUnits="userSpaceOnUse" x="42" y="13" width="8" height="21">
<g id="Az">
<path id="Vector_48" d="M42.7383 33.2656V13.0331H49.6782V33.2656H42.7383Z" fill="white"/>
</g>
</mask>
<g mask="url(#mask37_8214_11510)">
<g id="Group_43">
<path id="Vector_49" d="M42.7383 13.0331H49.6782V33.2656H42.7383V13.0331Z" fill="url(#paint9_linear_8214_11510)"/>
</g>
</g>
</g>
</g>
</g>
</g>
</g>
</g>
</g>
<g id="Mask group_2">
<mask id="mask38_8214_11510" style="mask-type:luminance" maskUnits="userSpaceOnUse" x="35" y="9" width="31" height="18">
<g id="Group_44">
<g id="Clip path group_38">
<mask id="mask39_8214_11510" style="mask-type:luminance" maskUnits="userSpaceOnUse" x="35" y="9" width="31" height="18">
<g id="BA">
<path id="Vector_50" d="M35.668 9.30253H65.7674V26.8125H35.668V9.30253Z" fill="white"/>
</g>
</mask>
<g mask="url(#mask39_8214_11510)">
<g id="Group_45">
<g id="Clip path group_39">
<mask id="mask40_8214_11510" style="mask-type:luminance" maskUnits="userSpaceOnUse" x="35" y="8" width="32" height="20">
<g id="BB">
<path id="Vector_51" d="M35.2578 8.61416H66.1847V27.5156H35.2578V8.62181V8.61416Z" fill="white"/>
</g>
</mask>
<g mask="url(#mask40_8214_11510)">
<g id="Group_46">
<g id="Clip path group_40">
<mask id="mask41_8214_11510" style="mask-type:luminance" maskUnits="userSpaceOnUse" x="35" y="9" width="31" height="18">
<g id="BC">
<path id="Vector_52" d="M35.668 26.8125H65.7674V9.30671H35.668V26.8125Z" fill="white"/>
</g>
</mask>
<g mask="url(#mask41_8214_11510)">
<g id="Group_47">
<g id="Clip path group_41">
<mask id="mask42_8214_11510" style="mask-type:luminance" maskUnits="userSpaceOnUse" x="35" y="9" width="31" height="18">
<g id="BD">
<path id="Vector_53" d="M35.668 9.30253H65.7674V26.8125H35.668V9.30253Z" fill="white"/>
</g>
</mask>
<g mask="url(#mask42_8214_11510)">
<g id="Group_48">
<g id="Clip path group_42">
<mask id="mask43_8214_11510" style="mask-type:luminance" maskUnits="userSpaceOnUse" x="35" y="9" width="31" height="18">
<g id="BE">
<path id="Vector_54" d="M35.668 26.8125H65.7674V9.30671H35.668V26.8125Z" fill="white"/>
</g>
</mask>
<g mask="url(#mask43_8214_11510)">
<g id="Group_49">
<g id="Clip path group_43">
<mask id="mask44_8214_11510" style="mask-type:luminance" maskUnits="userSpaceOnUse" x="35" y="9" width="31" height="18">
<g id="BF">
<path id="Vector_55" d="M35.668 9.30671H65.7691V26.8125H35.668V9.30671Z" fill="white"/>
</g>
</mask>
<g mask="url(#mask44_8214_11510)">
<g id="Group_50">
<g id="Clip path group_44">
<mask id="mask45_8214_11510" style="mask-type:luminance" maskUnits="userSpaceOnUse" x="35" y="9" width="31" height="18">
<g id="BG">
<path id="Vector_56" d="M65.7711 26.8125H35.6758V9.30741H65.7711V26.8125Z" fill="white"/>
</g>
</mask>
<g mask="url(#mask45_8214_11510)">
<g id="Group_51">
<g id="Clip path group_45">
<mask id="mask46_8214_11510" style="mask-type:luminance" maskUnits="userSpaceOnUse" x="35" y="9" width="31" height="18">
<g id="BH">
<path id="Vector_57" d="M65.7711 9.29976V26.8125H35.6758V9.3074H65.7711V9.29976Z" fill="white"/>
</g>
</mask>
<g mask="url(#mask46_8214_11510)">
<g id="Group_52">
<path id="Vector_58" d="M65.7711 26.8125H35.6758V9.30741H65.7711V26.8125Z" fill="url(#paint10_linear_8214_11510)"/>
</g>
</g>
</g>
</g>
</g>
</g>
</g>
</g>
</g>
</g>
</g>
</g>
</g>
</g>
</g>
</g>
</g>
</g>
</g>
</g>
</g>
</g>
</g>
</g>
</g>
</mask>
<g mask="url(#mask38_8214_11510)">
<g id="Group_53">
<g id="Clip path group_46">
<mask id="mask47_8214_11510" style="mask-type:luminance" maskUnits="userSpaceOnUse" x="38" y="8" width="21" height="42">
<g id="BK">
<path id="Vector_59" d="M38.9453 8.63418H58.6882V49.9766H38.9453V8.63418Z" fill="white"/>
</g>
</mask>
<g mask="url(#mask47_8214_11510)">
<g id="Group_54">
<g id="Clip path group_47">
<mask id="mask48_8214_11510" style="mask-type:luminance" maskUnits="userSpaceOnUse" x="42" y="12" width="14" height="35">
<g id="BL">
<path id="Vector_60" d="M42.4453 46.3438H55.2092V12.2899H42.4453V46.3438Z" fill="white"/>
</g>
</mask>
<g mask="url(#mask48_8214_11510)">
<g id="Group_55">
<g id="Clip path group_48">
<mask id="mask49_8214_11510" style="mask-type:luminance" maskUnits="userSpaceOnUse" x="42" y="12" width="14" height="35">
<g id="BM">
<path id="Vector_61" d="M42.8109 46.0543L42.4492 46.3438C47.0675 42.9049 52.5772 29.2669 55.2139 12.2885H54.6797C48.6199 30.3578 46.6709 42.4538 42.8109 46.0543Z" fill="white"/>
</g>
</mask>
<g mask="url(#mask49_8214_11510)">
<g id="Group_56">
<g id="Clip path group_49">
<mask id="mask50_8214_11510" style="mask-type:luminance" maskUnits="userSpaceOnUse" x="38" y="8" width="21" height="42">
<g id="BN">
<path id="Vector_62" d="M58.6877 13.2971L54.8141 49.9688L38.9453 45.298L42.8194 8.62637L58.6877 13.2971Z" fill="white"/>
</g>
</mask>
<g mask="url(#mask50_8214_11510)">
<g id="Group_57">
<g id="Clip path group_50">
<mask id="mask51_8214_11510" style="mask-type:luminance" maskUnits="userSpaceOnUse" x="38" y="8" width="21" height="42">
<g id="BO">
<path id="Vector_63" d="M58.6877 13.2971L54.8141 49.9688L38.9453 45.298L42.819 8.62637L58.6877 13.2971Z" fill="white"/>
</g>
</mask>
<g mask="url(#mask51_8214_11510)">
<g id="Group_58">
<path id="Vector_64" d="M58.6877 13.2971L54.8141 49.9688L38.9453 45.298L42.8194 8.62637L58.6877 13.2971Z" fill="url(#paint11_linear_8214_11510)"/>
</g>
</g>
</g>
</g>
</g>
</g>
</g>
</g>
</g>
</g>
</g>
</g>
</g>
</g>
</g>
</g>
</g>
</g>
</g>
<path id="Vector_65" d="M39.7975 44.5293C40.803 42.4811 41.6212 39.0003 42.738 33.2656C41.45 36.2199 40.1524 38.7606 38.8477 40.8327C39.1272 42.2673 39.4378 43.5182 39.7915 44.5293" fill="#079AE1"/>
<path id="Vector_66" d="M39.7973 44.5332C39.4561 45.2306 39.094 45.7601 38.69 46.1538L38.4219 46.3935C38.859 46.7881 39.3372 47.0397 39.8308 47.1349H39.8344L40.0642 47.1688H40.0786L40.1893 47.1788H40.2049L40.3246 47.1808L40.4473 47.1788C40.4598 47.1757 40.4724 47.174 40.485 47.1738L40.5712 47.1688C40.5853 47.1681 40.5994 47.1647 40.6131 47.1588L40.6968 47.1488L40.7369 47.1428L40.8267 47.1269L40.8614 47.1189L40.9572 47.0949C40.9674 47.0949 40.9752 47.0909 40.9859 47.0889L41.0937 47.0589H41.0997L41.3253 46.979C40.7298 46.6143 40.2312 45.7551 39.8009 44.5312" fill="#1969BC"/>
<path id="Vector_67" d="M31.2852 47.1769C31.7237 47.1757 32.1611 47.1055 32.5917 46.9671C32.9969 46.8422 33.4039 46.6544 33.8109 46.4176C34.1491 46.6933 34.5052 46.8972 34.8811 47.017C35.1731 47.117 35.4754 47.1669 35.7938 47.1669H31.2852V47.1769ZM35.7938 47.1769C36.8616 47.1769 37.7061 46.9771 38.4243 46.3906C38.8613 46.7857 39.3395 47.0373 39.8332 47.1319H39.8368L40.0666 47.1659H40.081L40.1917 47.1759H40.2073L40.327 47.1779H35.7998L35.7938 47.1769Z" fill="#1E5CB3"/>
<path id="Vector_68" d="M40.3164 47.1706L40.4391 47.1686C40.4516 47.1655 40.4642 47.1638 40.4768 47.1636L40.563 47.1586C40.5771 47.1578 40.5912 47.1545 40.6049 47.1486L40.6887 47.1386L40.7306 47.1326L40.8204 47.1166L40.8551 47.1086L40.9508 47.0846C40.961 47.0846 40.9688 47.0816 40.9796 47.0787L41.0873 47.0487H41.0933L41.3207 46.9688C41.5322 47.099 41.7561 47.1646 41.9815 47.1626L40.3176 47.1696L40.3164 47.1706Z" fill="#1D60B5"/>
<path id="Vector_69" d="M38.8454 40.8516L37.4197 42.9247L36.6758 43.8578C36.8777 44.265 37.0929 44.6532 37.3204 45.0207C37.6597 45.5702 38.0225 46.0328 38.4187 46.3895L38.6868 46.1497C39.0908 45.756 39.4529 45.2265 39.7941 44.5292C39.435 43.5301 39.1357 42.2683 38.846 40.8526" fill="#175FAB"/>
<g id="Group_59">
<g id="Clip path group_51">
<mask id="mask52_8214_11510" style="mask-type:luminance" maskUnits="userSpaceOnUse" x="39" y="12" width="16" height="35">
<g id="BP">
<path id="Vector_70" d="M52.9838 12.28H50.7375C50.6618 12.28 50.5878 12.2828 50.5142 12.2842L50.298 12.2891L49.8719 12.3238L49.6731 13.0317C47.4463 20.9434 45.1081 27.81 42.7332 33.2649C41.6169 38.9996 40.7979 42.4814 39.793 44.5288C40.2229 45.7516 40.7218 46.6108 41.3163 46.9766C41.3342 46.9682 41.3479 46.9641 41.3629 46.9585C41.367 46.9544 41.3695 46.9543 41.3733 46.9543C41.3833 46.9516 41.3941 46.9446 41.4053 46.9432C41.4302 46.9335 41.456 46.9245 41.4801 46.9106L41.525 46.8898L41.5915 46.862C41.6049 46.8523 41.6186 46.8482 41.6331 46.8412C41.6681 46.8232 41.6997 46.8107 41.7329 46.7926C41.7479 46.7809 41.7641 46.7718 41.7816 46.7649C41.8003 46.7531 41.8198 46.7441 41.8369 46.7302C41.8568 46.7198 41.8763 46.7128 41.8942 46.7003C41.9102 46.6925 41.9258 46.6825 41.9408 46.6705C41.9795 46.6483 42.0177 46.6289 42.0572 46.6025C42.0672 46.5969 42.078 46.5872 42.0884 46.5831C42.1121 46.5671 42.1366 46.5553 42.1591 46.5366C42.1682 46.531 42.1786 46.5227 42.1894 46.5178L42.4389 46.3401C42.4397 46.3401 42.4439 46.3374 42.4472 46.3346C42.5691 46.2438 42.6894 46.1473 42.8081 46.0452C46.6688 42.4446 48.6179 30.3494 54.6781 12.28H52.9838Z" fill="white"/>
</g>
</mask>
<g mask="url(#mask52_8214_11510)">
<g id="Group_60">
<g id="Clip path group_52">
<mask id="mask53_8214_11510" style="mask-type:luminance" maskUnits="userSpaceOnUse" x="39" y="12" width="16" height="35">
<g id="BQ">
<path id="Vector_71" d="M54.6655 46.9688H39.7812V12.2736H54.6655V46.9688Z" fill="white"/>
</g>
</mask>
<g mask="url(#mask53_8214_11510)">
<g id="Group_61">
<g id="Clip path group_53">
<mask id="mask54_8214_11510" style="mask-type:luminance" maskUnits="userSpaceOnUse" x="39" y="12" width="16" height="35">
<g id="BR">
<path id="Vector_72" d="M54.6655 12.2736V46.9688H39.7812V12.2736H54.6655Z" fill="white"/>
</g>
</mask>
<g mask="url(#mask54_8214_11510)">
<g id="Group_62">
<path id="Vector_73" d="M54.6655 46.9688H39.7812V12.2736H54.6655V46.9688Z" fill="url(#paint12_linear_8214_11510)"/>
</g>
</g>
</g>
</g>
</g>
</g>
</g>
</g>
</g>
<g id="Mask group_3">
<mask id="mask55_8214_11510" style="mask-type:luminance" maskUnits="userSpaceOnUse" x="14" y="11" width="14" height="6">
<g id="Group_63">
<g id="Clip path group_54">
<mask id="mask56_8214_11510" style="mask-type:luminance" maskUnits="userSpaceOnUse" x="14" y="11" width="14" height="6">
<g id="BS">
<path id="Vector_74" d="M14.2852 11.7235H27.064V16.6406H14.2852V11.7235Z" fill="white"/>
</g>
</mask>
<g mask="url(#mask56_8214_11510)">
<g id="Group_64">
<g id="Clip path group_55">
<mask id="mask57_8214_11510" style="mask-type:luminance" maskUnits="userSpaceOnUse" x="13" y="11" width="15" height="7">
<g id="BT">
<path id="Vector_75" d="M13.8711 11.0265H27.4769V17.3281H13.8711V11.0265Z" fill="white"/>
</g>
</mask>
<g mask="url(#mask57_8214_11510)">
<g id="Group_65">
<g id="Clip path group_56">
<mask id="mask58_8214_11510" style="mask-type:luminance" maskUnits="userSpaceOnUse" x="14" y="11" width="14" height="6">
<g id="BU">
<path id="Vector_76" d="M14.2891 16.6406H27.0654V11.7256H14.2891V16.6406Z" fill="white"/>
</g>
</mask>
<g mask="url(#mask58_8214_11510)">
<g id="Group_66">
<g id="Clip path group_57">
<mask id="mask59_8214_11510" style="mask-type:luminance" maskUnits="userSpaceOnUse" x="14" y="11" width="14" height="6">
<g id="BV">
<path id="Vector_77" d="M14.2891 11.7235H27.0679V16.6406H14.2891V11.7235Z" fill="white"/>
</g>
</mask>
<g mask="url(#mask59_8214_11510)">
<g id="Group_67">
<g id="Clip path group_58">
<mask id="mask60_8214_11510" style="mask-type:luminance" maskUnits="userSpaceOnUse" x="14" y="11" width="14" height="6">
<g id="BW">
<path id="Vector_78" d="M14.2891 16.6406H27.0654V11.7256H14.2891V16.6406Z" fill="white"/>
</g>
</mask>
<g mask="url(#mask60_8214_11510)">
<g id="Group_68">
<g id="Clip path group_59">
<mask id="mask61_8214_11510" style="mask-type:luminance" maskUnits="userSpaceOnUse" x="14" y="11" width="14" height="6">
<g id="BX">
<path id="Vector_79" d="M27.0629 16.6406H14.2891V11.7256H27.0633L27.0629 16.6406Z" fill="white"/>
</g>
</mask>
<g mask="url(#mask61_8214_11510)">
<g id="Group_69">
<g id="Clip path group_60">
<mask id="mask62_8214_11510" style="mask-type:luminance" maskUnits="userSpaceOnUse" x="14" y="11" width="14" height="6">
<g id="BY">
<path id="Vector_80" d="M14.2852 11.727H27.0594V16.6406H14.2852V11.727Z" fill="white"/>
</g>
</mask>
<g mask="url(#mask62_8214_11510)">
<g id="Group_70">
<g id="Clip path group_61">
<mask id="mask63_8214_11510" style="mask-type:luminance" maskUnits="userSpaceOnUse" x="14" y="11" width="14" height="6">
<g id="BZ">
<path id="Vector_81" d="M14.2852 16.6406V11.727H27.0594V16.6406H14.2852Z" fill="white"/>
</g>
</mask>
<g mask="url(#mask63_8214_11510)">
<g id="Group_71">
<path id="Vector_82" d="M14.2852 11.727H27.0594V16.6406H14.2852V11.727Z" fill="url(#paint13_linear_8214_11510)"/>
</g>
</g>
</g>
</g>
</g>
</g>
</g>
</g>
</g>
</g>
</g>
</g>
</g>
</g>
</g>
</g>
</g>
</g>
</g>
</g>
</g>
</g>
</g>
</g>
</g>
</mask>
<g mask="url(#mask55_8214_11510)">
<g id="Group_72">
<g id="Clip path group_62">
<mask id="mask64_8214_11510" style="mask-type:luminance" maskUnits="userSpaceOnUse" x="18" y="8" width="11" height="12">
<g id="Bc">
<path id="Vector_83" d="M18.6836 8.97803H28.7974V19.1953H18.6836V8.97803Z" fill="white"/>
</g>
</mask>
<g mask="url(#mask64_8214_11510)">
<g id="Group_73">
<g id="Clip path group_63">
<mask id="mask65_8214_11510" style="mask-type:luminance" maskUnits="userSpaceOnUse" x="19" y="13" width="10" height="4">
<g id="Bd">
<path id="Vector_84" d="M19.0078 16.3359H28.2065V13.0366H19.0078V16.3359Z" fill="white"/>
</g>
</mask>
<g mask="url(#mask65_8214_11510)">
<g id="Group_74">
<path id="Vector_85" d="M19.4733 13.0718L19.5012 13.0774C19.5248 13.0782 19.5483 13.0823 19.5714 13.0898C19.5798 13.0898 19.5872 13.0926 19.5943 13.094L19.719 13.1218C19.7265 13.1245 19.7336 13.1245 19.7398 13.1287L19.8479 13.1585C19.8566 13.1627 19.8655 13.1655 19.8745 13.1669L20.124 13.2585L20.1469 13.2675L20.2475 13.3147C20.2574 13.3196 20.2653 13.3217 20.2745 13.3286L20.3938 13.3841C20.3955 13.3876 20.398 13.3876 20.4021 13.3911L20.5061 13.45L20.546 13.4729L20.6208 13.5236C20.6345 13.5291 20.6487 13.5389 20.6632 13.5472L20.7622 13.6166L20.81 13.6513L20.8703 13.6929C20.8869 13.7089 20.9065 13.7221 20.9227 13.7346L20.9759 13.7797C21.4058 14.1267 21.8016 14.6014 22.1679 15.1719C22.3022 14.9345 22.4443 14.7222 22.5899 14.5306C21.7891 13.5833 20.8852 13.0426 19.8342 13.0426C19.7122 13.0419 19.5903 13.0505 19.4688 13.0683" fill="#7DCBEC"/>
<path id="Vector_86" d="M22.1758 15.1797C22.4058 15.5398 22.6206 15.9261 22.8185 16.3359L23.406 15.6836C23.1564 15.2648 22.886 14.882 22.5978 14.5391C22.4481 14.7358 22.3071 14.9501 22.1758 15.1804" fill="#5EC5ED"/>
<g id="Clip path group_64">
<mask id="mask66_8214_11510" style="mask-type:luminance" maskUnits="userSpaceOnUse" x="19" y="13" width="7" height="2">
<g id="Be">
<path id="Vector_87" d="M19.473 13.0768L19.8388 13.0511C20.8857 13.0511 21.7937 13.5924 22.5945 14.5391C23.4406 13.4266 24.4621 13.0372 25.8819 13.0372H19.0156C19.1713 13.038 19.3268 13.0512 19.4817 13.0768" fill="white"/>
</g>
</mask>
<g mask="url(#mask66_8214_11510)">
<g id="Group_75">
<g id="Clip path group_65">
<mask id="mask67_8214_11510" style="mask-type:luminance" maskUnits="userSpaceOnUse" x="18" y="8" width="9" height="11">
<g id="Bf">
<path id="Vector_88" d="M20.0115 8.98479L26.1956 13.2669L24.868 18.6094L18.6836 14.3273L20.0115 8.98341V8.98479Z" fill="white"/>
</g>
</mask>
<g mask="url(#mask67_8214_11510)">
<g id="Group_76">
<g id="Clip path group_66">
<mask id="mask68_8214_11510" style="mask-type:luminance" maskUnits="userSpaceOnUse" x="18" y="8" width="9" height="11">
<g id="Bg">
<path id="Vector_89" d="M20.0111 8.98341L26.1956 13.2655L24.868 18.6094L18.6836 14.3273L20.0111 8.98341Z" fill="white"/>
</g>
</mask>
<g mask="url(#mask68_8214_11510)">
<g id="Group_77">
<path id="Vector_90" d="M20.0115 8.98479L26.1956 13.2669L24.868 18.6094L18.6836 14.3273L20.0115 8.98341V8.98479Z" fill="url(#paint14_linear_8214_11510)"/>
</g>
</g>
</g>
</g>
</g>
</g>
</g>
</g>
</g>
<g id="Clip path group_67">
<mask id="mask69_8214_11510" style="mask-type:luminance" maskUnits="userSpaceOnUse" x="22" y="13" width="7" height="3">
<g id="Bh">
<path id="Vector_91" d="M25.8851 13.0412C24.4653 13.0412 23.4437 13.4299 22.5977 14.5431C22.8859 14.8859 23.1562 15.2688 23.4059 15.6875C24.5825 14.4383 25.7479 13.611 26.8975 13.2501C27.3365 13.1113 27.7739 13.0419 28.205 13.0419L25.8851 13.0412Z" fill="white"/>
</g>
</mask>
<g mask="url(#mask69_8214_11510)">
<g id="Group_78">
<g id="Clip path group_68">
<mask id="mask70_8214_11510" style="mask-type:luminance" maskUnits="userSpaceOnUse" x="22" y="9" width="7" height="11">
<g id="Bi">
<path id="Vector_92" d="M22 13.4886L27.2469 9.51886L28.7989 15.2334L23.552 19.2031L22 13.4886Z" fill="white"/>
</g>
</mask>
<g mask="url(#mask70_8214_11510)">
<g id="Group_79">
<g id="Clip path group_69">
<mask id="mask71_8214_11510" style="mask-type:luminance" maskUnits="userSpaceOnUse" x="22" y="9" width="7" height="11">
<g id="Bj">
<path id="Vector_93" d="M22 13.4886L27.2469 9.51885L28.7989 15.2334L23.552 19.2031L22 13.4886Z" fill="white"/>
</g>
</mask>
<g mask="url(#mask71_8214_11510)">
<g id="Group_80">
<path id="Vector_94" d="M22 13.4886L27.2469 9.51885L28.7989 15.2334L23.552 19.2031L22 13.4886Z" fill="url(#paint15_linear_8214_11510)"/>
</g>
</g>
</g>
</g>
</g>
</g>
</g>
</g>
</g>
</g>
</g>
</g>
</g>
</g>
</g>
</g>
</g>
</g>
<g id="Mask group_4">
<mask id="mask72_8214_11510" style="mask-type:luminance" maskUnits="userSpaceOnUse" x="28" y="15" width="31" height="28">
<g id="Group_81">
<g id="Clip path group_70">
<mask id="mask73_8214_11510" style="mask-type:luminance" maskUnits="userSpaceOnUse" x="28" y="15" width="31" height="28">
<g id="Bk">
<path id="Vector_95" d="M28.7422 15.0449H58.8417V42.625H28.7422V15.0435V15.0449Z" fill="white"/>
</g>
</mask>
<g mask="url(#mask73_8214_11510)">
<g id="Group_82">
<g id="Clip path group_71">
<mask id="mask74_8214_11510" style="mask-type:luminance" maskUnits="userSpaceOnUse" x="28" y="14" width="32" height="30">
<g id="Bl">
<path id="Vector_96" d="M28.332 14.3661H59.2589V43.3203H28.332V14.3661Z" fill="white"/>
</g>
</mask>
<g mask="url(#mask74_8214_11510)">
<g id="Group_83">
<g id="Clip path group_72">
<mask id="mask75_8214_11510" style="mask-type:luminance" maskUnits="userSpaceOnUse" x="28" y="15" width="31" height="28">
<g id="Bm">
<path id="Vector_97" d="M28.7422 42.6094H58.8417V15.0418H28.7422V42.6094Z" fill="white"/>
</g>
</mask>
<g mask="url(#mask75_8214_11510)">
<g id="Group_84">
<g id="Clip path group_73">
<mask id="mask76_8214_11510" style="mask-type:luminance" maskUnits="userSpaceOnUse" x="28" y="15" width="31" height="28">
<g id="Bn">
<path id="Vector_98" d="M28.7422 15.0449H58.8417V42.625H28.7422V15.0435V15.0449Z" fill="white"/>
</g>
</mask>
<g mask="url(#mask76_8214_11510)">
<g id="Group_85">
<g id="Clip path group_74">
<mask id="mask77_8214_11510" style="mask-type:luminance" maskUnits="userSpaceOnUse" x="28" y="15" width="31" height="28">
<g id="Bo">
<path id="Vector_99" d="M28.7422 42.6094H58.8417V15.0418H28.7422V42.6094Z" fill="white"/>
</g>
</mask>
<g mask="url(#mask77_8214_11510)">
<g id="Group_86">
<g id="Clip path group_75">
<mask id="mask78_8214_11510" style="mask-type:luminance" maskUnits="userSpaceOnUse" x="28" y="15" width="31" height="28">
<g id="Bp">
<path id="Vector_100" d="M58.8418 42.6094H28.7461V15.0418H58.8414V42.6094H58.8418Z" fill="white"/>
</g>
</mask>
<g mask="url(#mask78_8214_11510)">
<g id="Group_87">
<g id="Clip path group_76">
<mask id="mask79_8214_11510" style="mask-type:luminance" maskUnits="userSpaceOnUse" x="28" y="15" width="31" height="28">
<g id="Bq">
<path id="Vector_101" d="M28.7461 15.0588H58.8414V42.625H28.7461V15.0588Z" fill="white"/>
</g>
</mask>
<g mask="url(#mask79_8214_11510)">
<g id="Group_88">
<g id="Clip path group_77">
<mask id="mask80_8214_11510" style="mask-type:luminance" maskUnits="userSpaceOnUse" x="28" y="15" width="31" height="28">
<g id="Br">
<path id="Vector_102" d="M28.7461 42.625V15.0588H58.8414V42.625H28.7461Z" fill="white"/>
</g>
</mask>
<g mask="url(#mask80_8214_11510)">
<g id="Group_89">
<path id="Vector_103" d="M28.7461 15.0588H58.8414V42.625H28.7461V15.0588Z" fill="url(#paint16_linear_8214_11510)"/>
</g>
</g>
</g>
</g>
</g>
</g>
</g>
</g>
</g>
</g>
</g>
</g>
</g>
</g>
</g>
</g>
</g>
</g>
</g>
</g>
</g>
</g>
</g>
</g>
</g>
</mask>
<g mask="url(#mask72_8214_11510)">
<g id="Group_90">
<g id="Clip path group_78">
<mask id="mask81_8214_11510" style="mask-type:luminance" maskUnits="userSpaceOnUse" x="38" y="12" width="12" height="29">
<g id="Bu">
<path id="Vector_104" d="M38.8555 12.3154H49.891V40.8359H38.8555V12.3154Z" fill="white"/>
</g>
</mask>
<g mask="url(#mask81_8214_11510)">
<g id="Group_91">
<g id="Clip path group_79">
<mask id="mask82_8214_11510" style="mask-type:luminance" maskUnits="userSpaceOnUse" x="38" y="12" width="12" height="29">
<g id="Bv">
<path id="Vector_105" d="M38.8555 40.8359H49.8731V12.3272H38.8555V40.8359Z" fill="white"/>
</g>
</mask>
<g mask="url(#mask82_8214_11510)">
<g id="Group_92">
<g id="Clip path group_80">
<mask id="mask83_8214_11510" style="mask-type:luminance" maskUnits="userSpaceOnUse" x="38" y="12" width="12" height="29">
<g id="Bw">
<path id="Vector_106" d="M42.7391 33.2705L44.9169 21.6839C45.6968 17.5199 47.0805 14.3968 49.679 13.0352L49.8786 12.3272C45.644 12.7437 43.6646 16.347 42.668 21.6715C40.9218 30.9692 39.8716 36.9953 38.8555 40.8359C40.1526 38.7643 41.4498 36.2228 42.7387 33.2712" fill="white"/>
</g>
</mask>
<g mask="url(#mask83_8214_11510)">
<g id="Group_93">
<g id="Clip path group_81">
<mask id="mask84_8214_11510" style="mask-type:luminance" maskUnits="userSpaceOnUse" x="38" y="12" width="12" height="29">
<g id="Bx">
<path id="Vector_107" d="M49.8903 40.8281H38.8672V12.3201H49.8903V40.8281Z" fill="white"/>
</g>
</mask>
<g mask="url(#mask84_8214_11510)">
<g id="Group_94">
<g id="Clip path group_82">
<mask id="mask85_8214_11510" style="mask-type:luminance" maskUnits="userSpaceOnUse" x="38" y="12" width="12" height="29">
<g id="By">
<path id="Vector_108" d="M49.8903 12.3201V40.8281H38.8672V12.3201H49.8903Z" fill="white"/>
</g>
</mask>
<g mask="url(#mask85_8214_11510)">
<g id="Group_95">
<path id="Vector_109" d="M49.8903 40.8281H38.8672V12.3201H49.8903V40.8281Z" fill="url(#paint17_linear_8214_11510)"/>
</g>
</g>
</g>
</g>
</g>
</g>
</g>
</g>
</g>
</g>
</g>
</g>
</g>
</g>
</g>
</g>
</g>
</g>
</g>
</g>
<defs>
<linearGradient id="paint0_linear_8214_11510" x1="1636.67" y1="-8237.02" x2="1636.67" y2="-6460.06" gradientUnits="userSpaceOnUse">
<stop stop-color="#0994DC"/>
<stop offset="0.11" stop-color="#0994DC"/>
<stop offset="0.35" stop-color="#66CEF5"/>
<stop offset="0.45" stop-color="#66CEF5"/>
<stop offset="0.846" stop-color="#127BCA"/>
<stop offset="1" stop-color="#127BCA"/>
</linearGradient>
<linearGradient id="paint1_linear_8214_11510" x1="1741.58" y1="-8495.49" x2="1741.58" y2="-6626.36" gradientUnits="userSpaceOnUse">
<stop stop-color="#0E76BC"/>
<stop offset="0.176" stop-color="#0E76BC"/>
<stop offset="0.36" stop-color="#36AEE8"/>
<stop offset="0.52" stop-color="#36AEE8"/>
<stop offset="0.846" stop-color="#00ADEF"/>
<stop offset="1" stop-color="#00ADEF"/>
</linearGradient>
<linearGradient id="paint2_linear_8214_11510" x1="1733.95" y1="-9019.33" x2="1733.95" y2="-7004.95" gradientUnits="userSpaceOnUse">
<stop stop-color="#166AB8"/>
<stop offset="0.099" stop-color="#166AB8"/>
<stop offset="0.4" stop-color="#36AEE8"/>
<stop offset="0.516" stop-color="#36AEE8"/>
<stop offset="0.846" stop-color="#0798DD"/>
<stop offset="1" stop-color="#0798DD"/>
</linearGradient>
<linearGradient id="paint3_linear_8214_11510" x1="2170.07" y1="-9578.81" x2="2170.07" y2="-7301.57" gradientUnits="userSpaceOnUse">
<stop stop-color="#124379"/>
<stop offset="0.11" stop-color="#124379"/>
<stop offset="0.39" stop-color="#1487CB"/>
<stop offset="0.52" stop-color="#1487CB"/>
<stop offset="0.78" stop-color="#165197"/>
<stop offset="1" stop-color="#165197"/>
</linearGradient>
<linearGradient id="paint4_linear_8214_11510" x1="1365.51" y1="-6223.94" x2="1365.51" y2="-7536.58" gradientUnits="userSpaceOnUse">
<stop stop-color="#318ED5"/>
<stop offset="0.675" stop-color="#38A7E4"/>
<stop offset="1" stop-color="#38A7E4"/>
</linearGradient>
<linearGradient id="paint5_linear_8214_11510" x1="6232.23" y1="-20877.2" x2="1973.82" y2="-16374.5" gradientUnits="userSpaceOnUse">
<stop stop-color="#231F20"/>
<stop offset="0.129" stop-color="white"/>
<stop offset="0.4" stop-color="white"/>
<stop offset="1" stop-color="white"/>
</linearGradient>
<linearGradient id="paint6_linear_8214_11510" x1="1302.45" y1="-4796.62" x2="1302.45" y2="-5784.02" gradientUnits="userSpaceOnUse">
<stop stop-color="#05A1E6"/>
<stop offset="1" stop-color="#05A1E6"/>
</linearGradient>
<linearGradient id="paint7_linear_8214_11510" x1="1528.91" y1="-6753.84" x2="1528.91" y2="-7937.92" gradientUnits="userSpaceOnUse">
<stop stop-color="#1959A6"/>
<stop offset="0.154" stop-color="#1959A6"/>
<stop offset="0.484" stop-color="#05A1E6"/>
<stop offset="0.5" stop-color="#05A1E6"/>
<stop offset="0.918" stop-color="#7EC5EA"/>
<stop offset="1" stop-color="#7EC5EA"/>
</linearGradient>
<linearGradient id="paint8_linear_8214_11510" x1="3117.81" y1="-10458.7" x2="2498.08" y2="-12269.6" gradientUnits="userSpaceOnUse">
<stop stop-color="#165096"/>
<stop offset="0.104" stop-color="#165096"/>
<stop offset="1" stop-color="#0D82CA"/>
</linearGradient>
<linearGradient id="paint9_linear_8214_11510" x1="1509.87" y1="-5334.57" x2="1509.87" y2="-5808.18" gradientUnits="userSpaceOnUse">
<stop stop-color="#05A1E6"/>
<stop offset="0.649" stop-color="#05A1E6"/>
<stop offset="0.874" stop-color="#0495D6"/>
<stop offset="1" stop-color="#0495D6"/>
</linearGradient>
<linearGradient id="paint10_linear_8214_11510" x1="6724.84" y1="-5104.54" x2="6724.84" y2="-4662.99" gradientUnits="userSpaceOnUse">
<stop stop-color="#231F20"/>
<stop offset="1" stop-color="white"/>
</linearGradient>
<linearGradient id="paint11_linear_8214_11510" x1="4429.17" y1="-11976.5" x2="3681.48" y2="-9951.65" gradientUnits="userSpaceOnUse">
<stop stop-color="#38A7E4"/>
<stop offset="0.357" stop-color="#38A7E4"/>
<stop offset="0.962" stop-color="#0E88D3"/>
<stop offset="1" stop-color="#0E88D3"/>
</linearGradient>
<linearGradient id="paint12_linear_8214_11510" x1="3222.69" y1="-9979.71" x2="3222.69" y2="-8207.9" gradientUnits="userSpaceOnUse">
<stop stop-color="#168CD4"/>
<stop offset="0.5" stop-color="#1C87CC"/>
<stop offset="1" stop-color="#154B8D"/>
</linearGradient>
<linearGradient id="paint13_linear_8214_11510" x1="1930.17" y1="-1371.75" x2="1930.17" y2="-1406.55" gradientUnits="userSpaceOnUse">
<stop stop-color="white"/>
<stop offset="0.363" stop-color="white"/>
<stop offset="1" stop-color="#918F90"/>
</linearGradient>
<linearGradient id="paint14_linear_8214_11510" x1="1135.97" y1="-2773.24" x2="1229.72" y2="-2742.89" gradientUnits="userSpaceOnUse">
<stop stop-color="#97D6EE"/>
<stop offset="0.703" stop-color="#55C1EA"/>
<stop offset="1" stop-color="#55C1EA"/>
</linearGradient>
<linearGradient id="paint15_linear_8214_11510" x1="1079.56" y1="-2732.96" x2="1148.7" y2="-2754.97" gradientUnits="userSpaceOnUse">
<stop stop-color="#7ACCEC"/>
<stop offset="0.335" stop-color="#7ACCEC"/>
<stop offset="0.841" stop-color="#3FB7ED"/>
<stop offset="1" stop-color="#3FB7ED"/>
</linearGradient>
<linearGradient id="paint16_linear_8214_11510" x1="6216.16" y1="-6714.38" x2="6216.16" y2="-7809.36" gradientUnits="userSpaceOnUse">
<stop stop-color="#231F20"/>
<stop offset="1" stop-color="white"/>
</linearGradient>
<linearGradient id="paint17_linear_8214_11510" x1="2320.65" y1="-8117.65" x2="2320.65" y2="-6693.67" gradientUnits="userSpaceOnUse">
<stop stop-color="#1DA7E7"/>
<stop offset="1" stop-color="#37ABE7"/>
</linearGradient>
</defs>
</svg>
