<svg xmlns="http://www.w3.org/2000/svg" xmlns:xlink="http://www.w3.org/1999/xlink" width="80" height="80" viewBox="0 0 80 80">
    <defs>
        <path id="dfq5chxbaa" d="M9.497 2.658C3.651 6.911-.473 16.185.287 23.373c.758 7.19 6.114 9.57 11.96 5.318 5.846-4.252 9.97-13.525 9.21-20.715C20.953 3.203 18.423.55 15.069.55c-1.698 0-3.607.68-5.572 2.108"/>
        <path id="iccwf1iv7c" d="M9.497 2.658C3.651 6.911-.473 16.185.287 23.373c.758 7.19 6.114 9.57 11.96 5.318 5.846-4.252 9.97-13.525 9.21-20.715C20.953 3.203 18.423.55 15.069.55c-1.698 0-3.607.68-5.572 2.108"/>
        <path id="plgtgcdu1e" d="M9.497 2.658C3.651 6.911-.473 16.185.287 23.373c.758 7.19 6.114 9.57 11.96 5.318 5.846-4.252 9.97-13.525 9.21-20.715C20.953 3.203 18.423.55 15.069.55c-1.698 0-3.607.68-5.572 2.108z"/>
        <path id="c05xxcupug" d="M.287 23.373c.758 7.19 6.114 9.57 11.96 5.318 5.846-4.252 9.97-13.525 9.21-20.715C20.953 3.203 18.423.55 15.069.55c-1.698 0-3.607.68-5.572 2.108C3.651 6.911-.473 16.185.287 23.373z"/>
    </defs>
    <g fill="none" fill-rule="evenodd">
        <path fill="#FFF" fill-rule="nonzero" d="M0 0H80V80H0z"/>
        <path fill="#FEFEFE" fill-rule="nonzero" d="M0 79.869L79.869 79.869 79.869 0 0 0z"/>
        <g fill-rule="nonzero">
            <path fill="#123155" d="M54.721 16.709L36.91 6.425c-3-1.732-7.535-1.92-10.133-.42L8.531 16.538.015 18.556v4.265c-.007.095-.005.191 0 .287v.066h.003c.084 1.094.914 2.23 2.467 3.125l23.368 13.492c3 1.731 7.536 1.92 10.133.42l2.645-1.527 22.374-12.918c1.224-.706 1.79-1.664 1.742-2.658h.008v-4.321l-8.034-2.078z" transform="translate(8.553 30.058)"/>
            <path fill="#E9E8E7" d="M61.005 21.214L35.985 35.66c-2.597 1.498-7.133 1.31-10.132-.421L2.485 21.749c-3-1.733-3.325-4.352-.727-5.851L26.776 1.453c2.598-1.5 7.134-1.312 10.132.42l23.369 13.491c3 1.731 3.325 4.35.728 5.85" transform="translate(8.553 30.058)"/>
        </g>
        <g>
            <g>
                <path fill="#CECDCC" d="M14.022 19.68l-3.077 2.248-.497 5.553.193 3.653 2.35-1.72c.032-.023.055-.052.073-.084.04-.031.086-.108.083-.267-.115-6.08.43-8.478.909-9.42-.009.015-.02.027-.034.038" transform="matrix(-1 0 0 1 62 15) translate(0 .13)"/>
                <path fill="#CECDCC" d="M13.573 15.355l-2.35 1.72-.01 4.659 2.81-2.053c.037-.028.052-.069.047-.117l-.022-.215-.023-.213-.022-.215-.023-.214-.022-.214-.022-.215-.022-.213-.022-.215-.022-.214-.022-.213-.023-.214-.022-.213-.022-.212-.022-.212-.022-.21-.022-.211-.022-.21-.021-.21-.022-.208-.022-.208-.055.04" transform="matrix(-1 0 0 1 62 15) translate(0 .13)"/>
                <path fill="#ADADAD" d="M6.603 15.038c-.04.03-.05.096-.037.184.006.093.232 2.281.295 2.901.032.336.117 1.224-.014 2.16-.14.992-.465 1.94-.696 2.91-.42 1.76-.474 2.682-.51 3.293-.001.019-.099 1.907.174 2.39.62 1.098 3.95 2.801 4.826 2.258.072-.053.11-.13.108-.237-.201-7.48.867-9.396.923-9.496l-.45-4.326-4.62-2.037z" transform="matrix(-1 0 0 1 62 15) translate(0 .13)"/>
                <path fill="#ADADAD" d="M7.21 18.432c.12 1.167.118 2.219-.19 3.208-.585 2.3-1.259 4.452-.976 7.197-.038.137.991.943 2.19 1.48 1.059.467 1.794.514 1.742.466-.21-7.578.9-9.584.91-9.602l-.373-3.59-3.55-1.566.247 2.407z" transform="matrix(-1 0 0 1 62 15) translate(0 .13)"/>
                <path fill="#123155" d="M.018 9.143c.207 2 1.138 3.467 2.764 4.369L8.737.926c-1.203-.518-3.09-.824-5.251.659C2.083 2.547-.227 5.222.018 9.143z" transform="matrix(-1 0 0 1 62 15) translate(0 .13)"/>
                <path fill="#CECDCC" d="M8.737.926C7.809.51 6.61.696 5.355 1.58 2.8 3.38.966 7.395 1.259 10.546c.15 1.602.82 2.672 1.779 3.102l7.562 3.38 5.7-12.721L8.736.926z" transform="matrix(-1 0 0 1 62 15) translate(0 .13)"/>
                <path fill="#123155" d="M18.078 7.408c-.2-2.139-1.329-3.33-2.832-3.313-.712.01-1.507.288-2.328.866-.78.55-1.491 1.304-2.097 2.178-.385.555-.726 1.158-1.014 1.786-.744 1.626-1.132 3.423-.984 5.002.294 3.151 2.604 4.247 5.159 2.447 2.556-1.8 4.39-5.814 4.096-8.966z" transform="matrix(-1 0 0 1 62 15) translate(0 .13)"/>
                <path fill="#CECDCC" d="M31.172 5.26c-.568.283-1.202.52-1.859.716-1.332.395-3.016.698-4.738.717-.343-.002-.963-.006-1.663-.053-.619-.047-1.131-.115-1.52-.179l-.164-.03c-.446-.09-.859-.173-1.287-.278l-.101-.026-.062-.015c-.93-.242-1.536-.488-2.553-.9l-.587-.27c-.86-.385-1.97-.213-3.137.608-2.37 1.67-4.07 5.391-3.797 8.315.139 1.485.76 2.477 1.649 2.876l.587.269c1.775.823 2.57 1.42 3.574 2.175 1.025.772 2.063 1.924 2.453 2.358.89.986 2.58 3.32 3.286 5.81-.016-.084-.033-.195-.047-.278-.038-.262 16.73-22.725 17.059-22.879-1.963-.879-4.455-.582-7.093 1.064z" transform="matrix(-1 0 0 1 62 15) translate(0 .13)"/>
                <path fill="#0061B2" d="M22.287 27.145c.759 7.19 6.114 9.57 11.96 5.318 5.846-4.252 9.97-13.527 9.21-20.715-.759-7.189-6.114-9.57-11.96-5.318-5.846 4.253-9.97 13.526-9.21 20.715" transform="matrix(-1 0 0 1 62 15) translate(0 .13)"/>
                <path fill="#E9E8E7" d="M38.31 4.242c-2.174-1.009-5.006-.556-7.965 1.596-5.846 4.251-9.97 13.526-9.21 20.715.375 3.551 1.871 5.928 3.995 6.914l1.098.488c-2.124-.985-3.62-3.363-3.995-6.914-.76-7.188 3.364-16.463 9.21-20.715 2.958-2.152 5.79-2.604 7.965-1.596l-1.098-.488z" transform="matrix(-1 0 0 1 62 15) translate(0 .13)"/>
            </g>
            <g transform="matrix(-1 0 0 1 62 15) translate(22 3.9)">
                <mask id="3mk8frcj5b" fill="#fff">
                    <use xlink:href="#dfq5chxbaa"/>
                </mask>
                <path fill="#0061B2" d="M-.966 21.578c.38.312.762.62 1.145.926.571-.274 1.155-.627 1.745-1.067 4.64-3.462 7.843-10.87 7.157-16.546-.098-.804-.27-1.528-.503-2.171C5.868 1.914 3.17 1.065.462.204.122.403-.22.626-.564.883c-4.508 3.364-7.65 10.447-7.195 16.054 2.454 1.245 4.663 2.893 6.793 4.641" mask="url(#3mk8frcj5b)"/>
                <mask id="ob5qhl44nd" fill="#fff">
                    <use xlink:href="#iccwf1iv7c"/>
                </mask>
                <path fill="#ADADAD" d="M10.014 13.937l-.267.243c-.507.379-.858 1.19-.783 1.811-.007-.06-.01-.121-.01-.183l-.002.308c0 .084.003.165.014.245.088.728.584 1.02 1.162.741.082-.04.166-.09.25-.154.395-.294.718-.782.9-1.303.133-.377.191-.772.15-1.121-.101-.832-.734-1.095-1.414-.587" mask="url(#ob5qhl44nd)"/>
                <g>
                    <mask id="2imooy2k2f" fill="#fff">
                        <use xlink:href="#plgtgcdu1e"/>
                    </mask>
                    <path fill="#CECDCC" d="M5.832 6.452c-.921-.605-2.208-.472-3.547.528-2.345 1.75-3.965 5.495-3.618 8.364.192 1.592.95 2.58 1.986 2.845l7.849 2.012c-.96-4.022.4-7.13 4.108-9.308L5.832 6.452z" mask="url(#2imooy2k2f)"/>
                </g>
                <g>
                    <mask id="r8kz1rz68h" fill="#fff">
                        <use xlink:href="#c05xxcupug"/>
                    </mask>
                    <path fill="#E9E8E7" d="M11.428 14.524c.1.831-.37 1.917-1.05 2.424-.679.507-1.312.245-1.412-.587-.101-.832.368-1.917 1.048-2.424.68-.508 1.313-.244 1.414.587m-1.73-3.202c-.756.564-1.416 1.389-1.916 2.322-.73 1.364-1.117 2.96-.953 4.312.275 2.275 2.006 2.995 3.866 1.607 1.86-1.388 3.144-4.358 2.87-6.633-.173-1.423-.914-2.237-1.9-2.31-.59-.042-1.27.182-1.967.702" mask="url(#r8kz1rz68h)"/>
                </g>
            </g>
            <path fill="#123155" d="M42.538 12.343c.79 6.532-2.897 15.056-8.237 19.04-5.34 3.985-10.309 1.92-11.1-4.612-.79-6.532 2.899-15.056 8.238-19.04 5.339-3.985 10.309-1.92 11.099 4.612m-11.232-5.71c-5.834 4.355-9.864 13.67-9 20.807.864 7.137 6.293 9.394 12.127 5.04 5.835-4.354 9.865-13.669 9.001-20.806-.864-7.137-6.294-9.394-12.128-5.04" transform="matrix(-1 0 0 1 62 15)"/>
        </g>
    </g>
</svg>
