<svg id="Layer_1" data-name="Layer 1" xmlns="http://www.w3.org/2000/svg" viewBox="0 0 90 90"><defs><style>.cls-1{fill:#fff;}.cls-13,.cls-2{fill:#bfc3c7;}.cls-3,.cls-9{fill:#e9e8e7;}.cls-4{fill:#123155;}.cls-10,.cls-11,.cls-12,.cls-13,.cls-4,.cls-5,.cls-6,.cls-7,.cls-8,.cls-9{fill-rule:evenodd;}.cls-5{fill:#2161ac;}.cls-6{fill:#777;}.cls-7{fill:#989898;}.cls-8{fill:#bfbebe;}.cls-10{fill:#565656;}.cls-11{fill:#cecdcc;}.cls-12{fill:#f9cde0;}</style></defs><g id="Main-page"><g id="ScnSoft-COM-HomePage-1440_illustrations" data-name="ScnSoft-COM-HomePage-1440 illustrations"><g id="Industry"><g id="_4" data-name="4"><g id="icon_2_6" data-name="icon 2 6"><rect id="Rectangle" class="cls-1" width="90" height="90"/><g id="Group-119"><g id="Group-118"><path id="Fill-2" class="cls-2" d="M80.21,59.81h0V55l-9-2.34L51.14,41c-3.37-1.94-8.47-2.16-11.39-.47L19.22,52.42,9.64,54.69v4.8a1.71,1.71,0,0,0,0,.32v.08h0c.1,1.23,1,2.5,2.78,3.51L38.71,78.58c3.37,2,8.47,2.16,11.4.47L78.25,62.8a3.31,3.31,0,0,0,2-3"/><path id="Fill-4" class="cls-3" d="M78.25,57.68,50.11,73.93c-2.93,1.69-8,1.48-11.4-.47L12.42,58.28c-3.38-2-3.74-4.89-.82-6.58L39.75,35.45c2.92-1.69,8-1.48,11.39.47L77.43,51.1c3.38,1.95,3.75,4.89.82,6.58"/></g></g></g></g></g></g></g><path class="cls-4" d="M28.13,53.11h0l18.57-10h0a.4.4,0,0,1,.39,0h0l18.6,10.58a.61.61,0,0,1,.3.51.57.57,0,0,1-.28.51l-16.54,9a2.31,2.31,0,0,1-2.25,0l-12.29-7-6.1-3.46a.39.39,0,0,0-.4,0Z"/><path class="cls-5" d="M44.19,63.82l1.6-.87,1.13.65a2.31,2.31,0,0,0,2.25,0l16.54-9a.57.57,0,0,0,.28-.51h0L66,56h0a.57.57,0,0,1-.28.51l-16.54,9a2.31,2.31,0,0,1-2.25,0l-2.76-1.57Z"/><polygon class="cls-6" points="72.37 44.16 38 62.78 38.07 67.13 72.44 48.52 72.37 44.16 72.37 44.16"/><polygon class="cls-7" points="21.35 53.32 38 62.78 38.07 67.13 21.42 57.67 21.35 53.32 21.35 53.32"/><polygon class="cls-8" points="21.35 53.32 55.72 34.7 72.37 44.16 38 62.78 21.35 53.32 21.35 53.32"/><path class="cls-9" d="M59.16,38.26c-1.46.79-4.15.57-6-.48l-25.9,14c1.85,1.06,2.18,2.56.72,3.35L34.71,59c1.46-.79,4.15-.57,6,.48l25.89-14c-1.85-1.06-2.18-2.56-.72-3.35l-6.73-3.82Z"/><path class="cls-8" d="M35.91,52.69c1.45,0,2.64.7,2.65,1.5S37.41,55.63,36,55.6s-2.63-.7-2.64-1.5,1.15-1.44,2.59-1.41Z"/><polygon class="cls-10" points="29.07 49.14 45.72 58.6 45.79 62.95 64.35 52.9 64.3 49.81 30.36 48.44 29.07 49.14 29.07 49.14"/><path class="cls-11" d="M28,46.16h0l18.56-10h0a.37.37,0,0,1,.39,0h0L65.58,46.71a.59.59,0,0,1,.29.52.56.56,0,0,1-.27.51L49.06,56.68a2.26,2.26,0,0,1-2.25,0l-12.3-7-6.09-3.47a.42.42,0,0,0-.4,0Z"/><path class="cls-5" d="M45,36.94a.48.48,0,0,1,.5,0l17.31,9.84a.52.52,0,0,1,0,.87l-14,7.57a2,2,0,0,1-1.9,0L29.84,45.43a.47.47,0,0,0-.51,0"/><path class="cls-12" d="M51,49.13a1.72,1.72,0,0,1-1-1.34c0-1.06,1.51-1.88,3.41-1.85a5.38,5.38,0,0,1,2.4.58h0l.08,0,3.69,2.1-4.83,2.61L51,49.14Z"/><path class="cls-5" d="M27.79,46.71c0-.49.27-.72.63-.52L46.81,56.64a2.26,2.26,0,0,0,2.25,0L65.6,47.74a.56.56,0,0,0,.27-.51h0l0,1.79h0a.56.56,0,0,1-.27.51L49.09,58.47a2.29,2.29,0,0,1-2.25,0l-2.18-1.24L34,51.16l-2.36-1.35-2.62-1.48,0,.81-1.23.66-.05-3.09Z"/><polygon class="cls-4" points="29.79 48.74 29.07 49.14 29.05 48.33 29.79 48.74 29.79 48.74"/><path class="cls-11" d="M50,47.8a1.73,1.73,0,0,0,1,1.33h0l3.77,2.14,1,.58a2.12,2.12,0,0,1,.87,1.64l.15,9.19c0,.64-.36,1-.83.68l-1.45-.82,1.23-.67-.14-8.75L51.35,50.7c-.78-.36-1.29-.91-1.3-1.51l0-1.4Zm-4-1.47h-.19a.41.41,0,0,1,.19,0Z"/><path class="cls-4" d="M54.78,51.28,51,49.14h0a1.72,1.72,0,0,1-1-1.34c0-1.06,1.51-1.88,3.41-1.85a5.38,5.38,0,0,1,2.4.58h0l4.79,2.73a2.06,2.06,0,0,1,.86,1.64l.16,9.19a.77.77,0,0,1-.31.72h0l-4.83,2.62h0a.79.79,0,0,0,.31-.73l-.15-9.19a2.12,2.12,0,0,0-.87-1.64l-1-.58Z"/><path class="cls-13" d="M55.73,47.52s0,.59,0,.59c0,.6-.86,1.07-1.94,1h0c-1.07,0-1.95-.52-2-1.12,0,0,0-.63,0-.59,0,.59.9,1.1,2,1.12s2-.45,1.94-1Z"/><path class="cls-9" d="M53.76,46.4c1.08,0,2,.52,2,1.12s-.86,1.07-1.94,1-2-.53-2-1.12.86-1.07,1.94-1.05Z"/><path class="cls-11" d="M39.22,44.5a1.59,1.59,0,0,1-.65-1.89l9.84-26.13A1.08,1.08,0,0,1,50,15.86l2.27,1.29L41.48,45.79,39.22,44.5Z"/><path class="cls-11" d="M38.93,22.73a12.25,12.25,0,0,0-2.4,4.64v0a12.13,12.13,0,0,0-.47,3.46,8.56,8.56,0,0,0,.23,1.92h0A4.06,4.06,0,0,0,38,35.41h0l-2.19-1.25h0a4.06,4.06,0,0,1-1.75-2.64h0a8.54,8.54,0,0,1-.23-1.91,11.88,11.88,0,0,1,.48-3.48v0a12.57,12.57,0,0,1,2.41-4.64h0a6.67,6.67,0,0,1,1.88-1.57A3.25,3.25,0,0,1,41,19.47h0a2.77,2.77,0,0,1,.67.27h0L43.87,21h0a2.25,2.25,0,0,0-.69-.27h0a3.3,3.3,0,0,0-2.34.41,7.07,7.07,0,0,0-1.89,1.58v0Z"/><path class="cls-4" d="M38.45,27.76a6.75,6.75,0,0,0-.26,1.93,5.16,5.16,0,0,0,.14,1.1v0a2,2,0,0,0,1.45,1.61h0A1.91,1.91,0,0,0,41,32.17a3.83,3.83,0,0,0,1.1-.94l0,0a7,7,0,0,0,1.29-2.52v0a6.92,6.92,0,0,0,.27-2,4.79,4.79,0,0,0-.11-1v0A2.05,2.05,0,0,0,42.23,24h0a1.86,1.86,0,0,0-1.34.23,4.06,4.06,0,0,0-1,.86l0,0a6.94,6.94,0,0,0-1.37,2.63v0Zm6.9,1.35A12.36,12.36,0,0,1,43,33.61v0a6.77,6.77,0,0,1-1.93,1.63,3.38,3.38,0,0,1-2.24.44h0c-1.19-.23-2.12-1.28-2.54-2.93v0a8.27,8.27,0,0,1-.23-1.88,12,12,0,0,1,.48-3.49v0a12.42,12.42,0,0,1,2.4-4.61h0a6.77,6.77,0,0,1,1.87-1.57,3.28,3.28,0,0,1,2.35-.41h0a3.64,3.64,0,0,1,2.45,3.05v0a8.47,8.47,0,0,1,.21,1.75,12.24,12.24,0,0,1-.5,3.53v0Z"/><path class="cls-11" d="M43.43,28.7a7.07,7.07,0,0,1-1.31,2.53h0a3.83,3.83,0,0,1-1.1.94,1.92,1.92,0,0,1-1.23.25h0a1.51,1.51,0,0,1-.88-.51h0a2.22,2.22,0,0,1-.44-.73A2.54,2.54,0,0,0,39,31a4,4,0,0,0,1.11-.94h0a7.3,7.3,0,0,0,1.3-2.53h0a6.44,6.44,0,0,0,.27-2,4.9,4.9,0,0,0-.1-1,3,3,0,0,0-.2-.55c.9-.28,1.91.21,2.24,1.71h0a4.69,4.69,0,0,1,.11,1,6.79,6.79,0,0,1-.28,2Z"/><path class="cls-11" d="M50.7,29.42a12.4,12.4,0,0,0-2.4,4.64v0a12.13,12.13,0,0,0-.47,3.46,8,8,0,0,0,.24,1.92h0a4,4,0,0,0,1.75,2.63h0l-2.2-1.25h0a4.06,4.06,0,0,1-1.75-2.64h0a8,8,0,0,1-.24-1.91,12.23,12.23,0,0,1,.48-3.48v0a12.42,12.42,0,0,1,2.41-4.64h0a6.81,6.81,0,0,1,1.88-1.57,3.32,3.32,0,0,1,2.35-.41h0a2.77,2.77,0,0,1,.67.27h0l2.2,1.25h0a2.42,2.42,0,0,0-.69-.27h0a3.28,3.28,0,0,0-2.33.41,6.92,6.92,0,0,0-1.89,1.58l0,0Z"/><path class="cls-4" d="M50.23,34.45A6.41,6.41,0,0,0,50,36.38a4.13,4.13,0,0,0,.14,1.1v0a2,2,0,0,0,1.45,1.61h0a1.89,1.89,0,0,0,1.22-.25,3.87,3.87,0,0,0,1.11-.94v0a6.87,6.87,0,0,0,1.29-2.51v0a6.58,6.58,0,0,0,.27-2,4.17,4.17,0,0,0-.11-1v0A2.08,2.08,0,0,0,54,30.69h0a1.83,1.83,0,0,0-1.33.22,3.94,3.94,0,0,0-1,.86v0a6.8,6.8,0,0,0-1.37,2.63v0Zm6.89,1.35a12.34,12.34,0,0,1-2.33,4.5l0,0A6.64,6.64,0,0,1,52.84,42a3.31,3.31,0,0,1-2.23.44h0a3.57,3.57,0,0,1-2.53-2.94v0a8.27,8.27,0,0,1-.23-1.88,12,12,0,0,1,.48-3.49v0a12.29,12.29,0,0,1,2.41-4.61h0a6.81,6.81,0,0,1,1.88-1.57A3.25,3.25,0,0,1,55,27.41h0c1.17.28,2.07,1.37,2.45,3.05v0a7.84,7.84,0,0,1,.21,1.75,12.23,12.23,0,0,1-.49,3.53l0,0Z"/><path class="cls-11" d="M55.2,35.39a6.9,6.9,0,0,1-1.3,2.53h0a3.71,3.71,0,0,1-1.1.94,1.85,1.85,0,0,1-1.23.25h0a1.53,1.53,0,0,1-.89-.51h0a2.22,2.22,0,0,1-.44-.73,2,2,0,0,0,.51-.17,3.89,3.89,0,0,0,1.11-.94h0a6.9,6.9,0,0,0,1.3-2.53h0a6.72,6.72,0,0,0,.28-2,4.88,4.88,0,0,0-.11-1,3.93,3.93,0,0,0-.19-.55c.89-.28,1.9.21,2.23,1.71h0a4.08,4.08,0,0,1,.11,1,6.79,6.79,0,0,1-.28,2Z"/><path class="cls-4" d="M52.91,19a1.59,1.59,0,0,0-.65-1.89,1.09,1.09,0,0,0-1.59.62L40.84,43.9a1.6,1.6,0,0,0,.64,1.89,1.09,1.09,0,0,0,1.59-.62L52.91,19Z"/></svg>