<svg id="Layer_1" data-name="Layer 1" xmlns="http://www.w3.org/2000/svg" xmlns:xlink="http://www.w3.org/1999/xlink" viewBox="0 0 90 90"><defs><style>.cls-1{fill:#123155;}.cls-2{fill:#fff;}.cls-3{fill:#bfc3c7;}.cls-4{fill:#e9e8e7;}.cls-5{fill:#2161ac;}.cls-6{fill:#2c2c2c;}.cls-7{fill:#bfbebe;}.cls-8{fill:#989898;}.cls-9{clip-path:url(#clip-path);}.cls-10{fill:#cecdcc;}</style><clipPath id="clip-path"><path class="cls-1" d="M50.29,33.61l1.72-1c1.75-1,2.84-3.18,2.85-6.26,0-6.2-4.34-13.74-9.73-16.85-2.72-1.57-5.17-1.72-7-.68l-1.72,1c1.78-1,4.23-.89,6.95.68,5.39,3.11,9.74,10.65,9.73,16.85C53.13,30.43,52,32.59,50.29,33.61Z"/></clipPath></defs><g id="icon_2_4" data-name="icon 2 4"><rect id="Rectangle" class="cls-2" width="90" height="90"/><g id="Group-135"><g id="Group-134"><path id="Fill-2" class="cls-3" d="M80.21,59.81h0V55l-9-2.34L51.14,41c-3.37-1.94-8.47-2.16-11.39-.47L19.22,52.42,9.64,54.69v4.8a1.71,1.71,0,0,0,0,.32v.08h0c.1,1.23,1,2.5,2.78,3.51L38.71,78.58c3.37,2,8.47,2.16,11.4.47L78.25,62.8a3.31,3.31,0,0,0,2-3"/><path id="Fill-4" class="cls-4" d="M78.25,57.68,50.11,73.93c-2.93,1.69-8,1.48-11.4-.47L12.42,58.28c-3.38-2-3.74-4.89-.82-6.58L39.75,35.45c2.92-1.69,8-1.48,11.39.47L77.43,51.1c3.38,1.95,3.75,4.89.82,6.58"/></g></g></g><ellipse class="cls-1" cx="40.52" cy="49.94" rx="2.72" ry="1.9" transform="translate(-18.11 23.52) rotate(-26.68)"/><path class="cls-5" d="M57.36,53.38v0c0-.06,0-.12,0-.2h0c0-.06,0-.15,0-.21v0c0-.08,0-.14,0-.18h0c0-.08,0-.12,0-.19v-.08c0-.05,0-.1,0-.14v0h0a.68.68,0,0,1,0-.14,9.33,9.33,0,0,0-.4-1.62,1.34,1.34,0,0,1-.05-.14h0l-.06-.18,0-.06a.61.61,0,0,1-.05-.12l-.06-.14a11.64,11.64,0,0,0-.76-1.49l0,0-.1-.16v0l-.1-.14,0-.06-.11-.15h0a.71.71,0,0,0-.1-.14h0l-.12-.16-.11-.14L55,47.22l-.09-.12-.43-.5a13.7,13.7,0,0,0-2-1.81l0,0-.16-.12,0,0h0a1,1,0,0,1-.15-.11l-.06,0,0,0c-.27-.19-.45-.3-.65-.43l-.29-.17h0l-.25-.15h0l-.12-.06-.12-.07c-.09-.05-.42-.23-.83-.42L49.52,43h0l-.16-.07h0l-.22-.1h0l-.18-.07-.18-.07h-.07l-.11,0-.06,0-.06,0h-.05l-.12,0h-.06l-.12,0H48l-.16-.05h-.09l-.08,0-.09,0h0l-.06,0-.11,0H47.3l-.2,0-.17,0h0l-.07,0-.11,0h-.06l-.13,0h0l-.23,0H46c-.31,0-.54,0-.68-.06h-.81l-.48,0h0l-.32,0c-.39,0-.7.09-.81.11l-.17,0h0l-.2,0h0l-.17,0h0l-.12,0h0l-.18,0-.08,0a12.55,12.55,0,0,0-1.5.5h0l0,0-.09,0L40,43h0l-.24.11h0l-.26.12-.29.15h0l-.25.13-.2.11-.07,0-.15.08,0,0-.19.11,0,0-.06,0-.22.13h0l-.25.16h0l-.25.17h0l-.24.17h0l0,0-.23.17h0l0,0-.21.17,0,0-.07,0-.19.16h0l0,0-.22.19h0l-.05,0h0l-.18.17,0,0h0l-.07.07-.09.08,0,0A12.67,12.67,0,0,0,34,47.69l0,.07-.08.11,0,0-.06.09v0l0,0v0l-.09.12v0l0,0-.09.13a1,1,0,0,1-.08.14v0l0,.05-.06.1v0l0,0a.54.54,0,0,0,0,.11l0,0a.93.93,0,0,0,0,.1l0,.08a1.63,1.63,0,0,0-.09.16h0L33,49.4l-.09.18-.07.18a2.2,2.2,0,0,0-.09.21,9.2,9.2,0,0,0-.69,3,.34.34,0,0,0,0,.1h0v0h0s0,.1,0,.15h0v.27a11.5,11.5,0,0,0,.08,1.35V55c0,.18,0,.28,0,.29h0v.1s0,.08,0,.12h0a1.91,1.91,0,0,0,0,.21h0l0,.15V56l0,.07,0,.12h0v0s0,.08,0,.18h0v0h0s0,.09,0,.14l0,.07h0c0,.06,0,.1,0,.14l.1.34v0a10.62,10.62,0,0,0,.71,1.66l.08.16.09.16h0v0l.09.14h0l0,0a.63.63,0,0,1,.07.12h0l.09.14v0l0,.07,0,.07,0,0,0,0L34,60h0l0,.07.05.06,0,0v0l.1.12h0a1.13,1.13,0,0,0,.1.13l.16.21.07.09c.06.06.11.13.17.2l.29.32.23.24,0,0,.25.24h0l.25.23h0l0,0,.25.21,0,0h0l.25.2,0,0,0,0h0a9.67,9.67,0,0,0,1,.67h0l.31.19a9.57,9.57,0,0,0,.84.46l.08,0,0,0,.12.06a13.79,13.79,0,0,0,1.49.61l.18.05.23.08.16,0,.24.07.48.12h.06l.3.07.29,0h0l.4.07h.11l.16,0,.25,0,.14,0,.23,0c.42,0,.86,0,1.31,0h.34c.23,0,.53,0,.76,0l.56-.06.47-.07.1,0h.07l.29,0,.13,0a11.13,11.13,0,0,0,1.17-.3l.26-.08.11,0,.13,0,.19-.06.25-.1.08,0,.09,0,.41-.17.57-.27.19-.1.37-.2.4-.23.08,0c.24-.15.5-.32.76-.51l.18-.13h0l.27-.2h0c.27-.22.53-.44.76-.66l.06-.06.17-.16.07-.07.09-.1.08-.08.14-.16a.57.57,0,0,0,.1-.11l0,0h0l0,0c.18-.22.38-.47.59-.75h0l.1-.15h0l.09-.13v0h0l.07-.11,0,0h0l0,0,0-.05.06-.1v0l.06-.09,0-.06.1-.16h0l0,0,0-.08h0L56,59l0,0,0,0h0l0,0h0l0-.05v0h0l0,0,0-.06v0l0-.08h0l0,0v0h0l.08-.18h0l.07-.17,0,0,0-.06,0-.09,0-.07,0-.06,0-.08,0-.06,0-.09v0a1.21,1.21,0,0,0,.05-.14h0a.64.64,0,0,1,0-.07h0a1.2,1.2,0,0,0,.06-.17h0v0l.06-.17v0c0-.06,0-.12.05-.19v-.06a1.09,1.09,0,0,1,.05-.17h0v0c0-.06,0-.12,0-.18h0A11.88,11.88,0,0,0,57.36,53.38ZM40.08,44.55V44.4a.07.07,0,0,1,0,0,.13.13,0,0,1,0-.06v0a.43.43,0,0,1,0-.05.64.64,0,0,0,0-.07h0l0,0,0-.07a.14.14,0,0,1,0-.06h0l0-.06,0,0h0l0-.06,0,0v0a.1.1,0,0,1,0,0l0,0,0,0,0-.05,0,0,0,0,0,0,0,0,0,0h0l0,0,0,0,0,0,0,0,.05-.05,0,0,0,0h0s0,0,0-.05l0,0h0l0,0h0l.07,0h.08l.09-.06h.07l.15-.09.21-.11h0l0,0,.15-.07h0l.07,0,.16-.06.08,0h0l.18-.06h.1l.18-.06h.09l.2,0h0l.08,0,.18,0h.1l.17,0,.1,0,.22,0H44l.2,0h1l.2,0h.09l.22,0h.08l.2,0h0l.11,0,.1,0h0l.1,0,.09,0h0l.1,0,.09,0h0l.1,0,.1,0h0l.11,0,.09,0,.1,0,.1,0,.1,0h0l.09,0,.09,0h0a.2.2,0,0,1,.08,0l.1,0,.08,0,.1,0,.08,0,.14.08.15.1h.07l.07.06h.09l0,0h0l0,0h0l0,0,0,0h0l0,0h0l0,0,0,0h0l0,0v0h0l0,0,0,0h0l0,0v0l0,0,0,0h0l0,0v0l0,.06,0,0v0l0,0s0,0,0,.08v0l0,0,0,.09h0v0a1,1,0,0,1,0,.1v0s0,.07,0,.11h0a.27.27,0,0,1,0,.12h0A2.18,2.18,0,0,1,48,46.55l-.18.1h0l0,0h0l-.14.07h0l-.05,0-.13.06h0l-.07,0-.15.05L47,47h0a7.19,7.19,0,0,1-.8.2h-.06l-.15,0h0l-.19,0h0l-.16,0h0l-.24,0H43.82l-.14,0h0l-.08,0-.13,0h0l-.1,0-.08,0h-.07l-.09,0h0l-.07,0h-.06l-.08,0h0l-.08,0h0l-.07,0H42.5l-.08,0,0,0h-.12l-.09,0H42l-.1,0h-.13l-.11-.06h-.1l-.19-.11-.28-.18-.07,0L41,46.19l-.06,0a.18.18,0,0,1-.07,0L40.78,46,40.72,46l0,0-.06-.06,0,0-.05-.07,0,0v0h0a.1.1,0,0,1,0-.05l0,0v0l0,0,0,0h0v0l0,0v0h0l0,0a.64.64,0,0,0,0-.07h0a.08.08,0,0,0,0-.05s0,0,0-.08,0,0,0,0v0s0,0,0-.06v-.08a.09.09,0,0,1,0,0v-.31Z"/><path class="cls-6" d="M32.1,52.42a5.29,5.29,0,0,0-.05.56.34.34,0,0,0,0,.1h0v0h0s0,.1,0,.15h0v.27a11.5,11.5,0,0,0,.08,1.35V55c0,.18,0,.28,0,.29h0v.1l0,.12h0a1.91,1.91,0,0,0,0,.21h0l0,.15V56l0,.07a.5.5,0,0,1,0,.12h0v0s0,.08,0,.18h0v0h0s0,.09,0,.14l0,.07h0c0,.06,0,.1,0,.14l.1.34v0a10.62,10.62,0,0,0,.71,1.66l.08.16.09.16h0v0l.09.14h0l0,0a.63.63,0,0,1,.07.12h0l.09.14v0l0,.07,0,.07,0,0,0,0L34,60h0l0,.06.05.07,0,0v0l.09.12h0a1.13,1.13,0,0,0,.1.13l.16.21.07.09c.06.06.11.13.17.2l.29.32.23.24,0,0,.25.24h0l.25.23h0l0,0,.25.21,0,0h0l.25.2,0,0,0,0h0c.37.29.68.5,1,.68h0l.31.19a9.57,9.57,0,0,0,.84.46l.08,0,0,0,.12.06a13.79,13.79,0,0,0,1.49.61l.18.05.23.08.16,0,.24.07.48.12h.06l.3.07.29,0h0l.4.07h.11l.16,0,.25,0,.14,0,.23,0c.42,0,.86,0,1.31,0h.34c.23,0,.53,0,.76,0l.56-.06.47-.07.1,0h.07l.29,0,.13,0a11.13,11.13,0,0,0,1.17-.3l.26-.08.11,0,.13,0,.19-.06.25-.1.08,0,.09,0,.41-.17.57-.27.19-.1.37-.2.4-.23.08,0c.24-.15.5-.32.76-.51l.18-.13h0l.27-.2h0c.27-.22.53-.44.76-.66l.06-.06.17-.16.07-.07.09-.1.08-.08.14-.16a.57.57,0,0,0,.1-.11l0,0h0l0,0c.18-.22.38-.47.59-.75h0l.1-.15h0l.09-.13v0h0l.07-.11,0,0h0l0,0,0-.05.06-.1v0l.06-.09,0-.06.1-.16h0l0,0,0-.08h0L56,59h0l0,0,0,0h0l0,0h0l0-.05v0h0l0,0,0-.06v0l0-.08h0l0,0v0h0l.08-.18h0l.07-.17,0,0,0-.06,0-.09,0-.07,0-.06,0-.08,0-.06,0-.09v0a1.21,1.21,0,0,0,.05-.14h0l0-.07h0c0-.07,0-.13.06-.17h0v0h0l.06-.17h0l0,0c0-.06,0-.12.05-.19v-.06a1.09,1.09,0,0,1,.05-.17h0v0a1.16,1.16,0,0,1,0-.18h0a11.88,11.88,0,0,0,.31-2.89v0c0-.06,0-.12,0-.2h0c0-.06,0-.15,0-.21v0c0-.08,0-.14,0-.18h0c0-.08,0-.12,0-.19v-.08s.07,10.94-12.6,10.94S32.1,52.42,32.1,52.42Z"/><path class="cls-6" d="M50.37,39.71V40a.13.13,0,0,1,0,.06v0s0,.05,0,.08h0l0,.09v0a.19.19,0,0,1,0,.07v0a.64.64,0,0,0,0,.07l0,0a.42.42,0,0,1,0,.1l-2.31,5,0-.08v0l0-.08h0s0,0,0-.08h0s0-.06,0-.08v-.1h0v-.1s0-.06,0-.08h0s0-.06,0-.08v0a.19.19,0,0,1,0-.08v0l0-.07h0l0-.08v0a.56.56,0,0,0,0-.08h0l-.05-.07v0l-.06-.08h0a.46.46,0,0,0-.07-.07h0L47.5,44l0,0,0,0,0,0,0,0,0,0,0,0,0,0,0,0,0,0-.06,0,0,0-.09,0L47,43.65l-.05,0-.07,0-.05,0,0,0-.18-.08h0l-.18-.06,0,0-.15-.05h0l-.18,0-.05,0-.14,0h-.05l-.18,0H44.33l-.17,0h0l-.18,0h-.09l-.09,0h-.07l-.08,0h-.13l-.09,0-.05,0-.09,0-.05,0-.1,0h0l-.13,0,0,0-.09,0-.05,0-.08,0,0,0-.05,0-.17.09-.13.08h0l-.12.07,0,0,0,0,0,0,0,0,0,0,0,0,0,0,0,0,0,0-.06.06,0,0-.06.07,0,0,0,0,0,0,0,.06h0l0,.06v0s0,0,0,0v0l0,0v0l0,0v.53s0,0,0,.06h0s0,0,0,.06v.08s0,0,0,0h0s0,.07,0,.11l-2.28-5,0-.1v0l0-.06h0a.25.25,0,0,1,0-.07l0,0a.24.24,0,0,0,0-.08v0h0a.36.36,0,0,1,0-.1h0s0-.07,0-.11h0v0a.15.15,0,0,1,0-.07v-.1h0v-.15a.13.13,0,0,0,0-.06h0v0a.13.13,0,0,1,0-.06.09.09,0,0,1,0-.05v-.06h0v0a.64.64,0,0,1,0-.07v0a.25.25,0,0,0,0-.07v0l0-.07,0,0,0-.07v0h0l0-.08,0,0,.07-.11h0l.07-.11,0,0,.06-.09,0,0,0,0,0,0,.06-.06,0,0,.08-.08,0,0,.05-.05h0l.05-.05,0,0,.05,0,.06,0a.1.1,0,0,1,.05,0l.06-.05.05,0,0,0,0,0,0,0,.07,0,0,0,.08-.05,0,0,.14-.08.19-.1,0,0,.08,0,.06,0,.08,0,.14-.06.08,0,.16-.06.06,0,.22-.08h0l.18-.06.09,0,.15,0,.09,0,.15,0,.09,0,.06,0h.07l.15,0,.12,0,.15,0h.06l.09,0h.07l.21,0h0l.22,0h1.65l.18,0h.12l.23,0h0l.22,0h.06l.06,0,.16,0h0l.17,0h0l.06,0,.19.05h.06l.2.06.05,0,.1,0,.07,0,.06,0,.18.07h.05l.2.09.05,0,.12,0,0,0,.09,0,.12.07.08,0,.06,0,.11.07.14.09s0,0,0,0l.1.06h0l0,0,.07,0,0,0,.07,0,.05,0,.06,0,.05,0s0,0,0,.05l0,0,0,0,0,0,.06.06,0,0,.08.09h0l.06.08,0,0,0,.07,0,0,0,.06,0,0,0,.09h0l.05.08v0l0,.06v0l0,.07v0l0,.1v0a.19.19,0,0,1,0,.07v0a.19.19,0,0,1,0,.07v0s0,.05,0,.07v0s0,.07,0,.1v0s0,0,0,.07v0s0,0,0,.06v.11Z"/><path class="cls-1" d="M51.21,41l-.06.11,0,0,0,.08,0,0a.16.16,0,0,1,0,.07l0,0a.22.22,0,0,1-.05.08l0,0-.08.11,0,0-.07.09,0,0-.06.07-.07.08-.05,0a.94.94,0,0,1-.1.1l0,0-.14.12,0,0-.1.09-.06,0-.1.07-.06,0-.1.07-.06,0-.12.07,0,0-.18.1a1.27,1.27,0,0,1-.23.12l-.06,0-.21.1h0l-.23.1-.07,0-.2.08-.05,0-.25.08-.06,0-.21.07-.06,0-.26.07h-.06l-.22.06h-.07l-.27.06h0l-.24.05h-.07l-.28,0h0l-.26,0h-.08l-.27,0h0l-.28,0H43.94l-.17,0h-.15l-.16,0-.15,0-.16,0-.15,0-.16,0-.15,0-.16,0-.14,0-.16,0-.14,0-.16,0-.13,0-.16-.05-.13,0-.16,0-.12,0-.16-.06-.12,0-.15-.06-.12,0L40.52,43l-.1-.05-.17-.09-.08,0-.25-.14A4.17,4.17,0,0,1,38.25,41l.19.41h0l1.79,3.9a2.77,2.77,0,0,0,1.16,1.18,1,1,0,0,0,.17.1l.06,0,.11.06.07,0,.11,0,.08,0,.11,0,.08,0,.11,0,.09,0,.11,0,.09,0,.11,0,.09,0,.11,0,.1,0,.11,0,.1,0,.11,0,.1,0,.11,0,.1,0h.22l.11,0h1.27l.2,0h.08l.26,0h0l.19,0h0l.16,0h0l.19,0h0l.16,0h0l.18,0h0L47,47h0l.17-.06h0l.15-.06,0,0,.17-.07h0l.14-.07,0,0,.16-.08.12-.07,0,0,.08-.05,0,0,.07,0,0,0,.07,0,0,0,.08-.06,0,0,.1-.08,0,0,.07-.07,0,0,.06,0v0l0,0,0,0,0-.06h0l.06-.08v0l0,0,0,0,0-.05v0l0,0,0,0,0-.08c.61-1.29,1.21-2.59,1.82-3.89h0Z"/><path class="cls-6" d="M49.72,44.15l0,.07,0,0,0,0,0,0-.06.07,0,0-.09.08,0,0a.52.52,0,0,1-.11.1l0,0-.09.07,0,0-.08.06,0,0-.09.06,0,0-.1.06,0,0-.15.09-.18.1-.05,0-.18.08h0l-.19.09-.06,0-.17.07h0l-.21.07,0,0-.18,0,0,0-.22.06h0l-.19,0h0l-.22,0h0l-.19,0h-.06l-.23,0h0l-.32,0h-.09l-.24,0h-1.5l-.14,0h-.12l-.14,0-.12,0-.13,0-.12,0-.13,0-.12,0-.13,0-.11,0-.13,0-.12,0-.12,0-.11,0-.13-.05-.11,0-.12-.05-.1,0-.13,0-.09,0-.13-.06-.09,0L41,45.17l-.07,0-.2-.11a3.8,3.8,0,0,1-1.09-.94l.56,1.22a2.77,2.77,0,0,0,1.16,1.18,1,1,0,0,0,.17.1l.06,0,.11.06.07,0,.11,0,.08,0,.11,0,.08,0,.11,0,.09,0,.11,0,.09,0,.11,0,.09,0,.11,0,.1,0,.11,0,.1,0,.11,0,.1,0,.11,0,.1,0h.22l.11,0h1.27l.2,0h.08l.26,0h0l.19,0h0l.16,0h0l.19,0h0l.16,0h0l.18,0h0L47,47h0l.17-.06h0l.15-.06,0,0,.17-.07h0l.14-.07,0,0,.16-.08.12-.07,0,0,.08-.05,0,0,.07,0,0,0,.07,0,0,0,.08-.06,0,0,.1-.08,0,0,.07-.07,0,0,.06,0v0l0,0,0,0,0-.06h0l.06-.08v0l0,0,0,0,0-.05v0l0,0,0,0,0-.08.6-1.27-.06.08Z"/><path class="cls-5" d="M51.3,40.81l0-.13v0l0-.13h0l0-.12v0h0s0-.07,0-.11V40h0a.49.49,0,0,0,0-.12v0s0,0,0-.08v0s0-.07,0-.11v0a.29.29,0,0,1,0-.09v0l0-.08v0h0s0-.07,0-.11h0l0-.1v0a.3.3,0,0,0,0-.08v0a.59.59,0,0,1,0-.08v0h0l-.06-.1,0,0s0,0,0-.08l0,0a.43.43,0,0,0,0-.07l0,0,0-.07v0h0l-.08-.09v0l-.07-.07,0,0-.06-.07,0,0a.46.46,0,0,0-.07-.07l0,0h0l-.1-.09h0l-.09-.08,0,0-.07-.07,0,0-.08-.06,0,0h0l-.07,0,0,0a.18.18,0,0,1-.07-.05l0,0-.08-.05,0,0-.12-.08-.11-.06-.11-.06,0,0L49.06,37,49,37l-.19-.09-.05,0h0l-.22-.09,0,0-.2-.08-.08,0-.2-.06-.07,0h0l-.19-.06,0,0-.28-.07-.08,0-.21,0-.11,0-.12,0h-.05l-.18,0-.14,0-.19,0-.14,0-.19,0h-.13l-.21,0H43.85l-.26,0h-.1l-.21,0h-.1l-.21,0H42.9l-.28.05h-.06l-.22,0-.09,0-.2,0H42l-.27.08h-.05l-.22.07-.08,0-.19.06-.07,0-.25.1h0l-.22.09-.07,0-.17.08-.07,0a1.71,1.71,0,0,0-.23.13h0l-.12.06,0,0-.08,0,0,0-.07.05,0,0-.07,0,0,0-.06,0,0,0-.05,0,0,0-.05,0,0,0,0,0,0,0-.05,0,0,0L39,38l0,0L39,38l0,0,0,0,0,0,0,0,0,0,0,.06,0,0a.27.27,0,0,0-.07.08h0a.76.76,0,0,0-.08.11l0,0-.07.11h0l-.07.11,0,0-.05.1v0l-.06.12v0l0,.1v0s0,.08,0,.12v0s0,.06,0,.1v0h0v.09s0,0,0,.06v0a.25.25,0,0,1,0,.08v0s0,.06,0,.09v.39h0v.16s0,.06,0,.09h0a.29.29,0,0,1,0,.09v0l0,.06v0l0,0v0l0,.05v.06h0l.05.12h0l.06.12,0,0a.75.75,0,0,0,.07.12h0a1,1,0,0,0,.08.11v0h0a.76.76,0,0,0,.08.11h0a.76.76,0,0,1,.08.11l0,0,.07.08,0,0,.1.1h0l0,0L39,42l0,0,.07.07,0,0,.11.09h0l.12.08h0l0,0,.07.06,0,0,.07,0,.05,0,.08.05,0,0,.13.08h0l.2.12,0,0,.22.11,0,0,.09,0,.07,0,.17.08.12,0,.19.07.08,0,0,0,.2.06.11,0,.27.08h0l.32.09.09,0,.23,0h.12l.2,0,.14,0,.19,0h.06l.08,0,.2,0h.14l.2,0h1.76l.16,0h.16l.16,0,.15,0,.16,0,.16,0,.15,0h.16l.13,0,.17,0,.12,0,.17,0,.12,0,.17,0,.12,0,.16-.05.12,0,.17-.06.1,0,.2-.07.07,0,.25-.11h0l.18-.09.09,0,.26-.14.19-.11,0,0,.17-.11,0,0,.17-.11,0,0,.15-.12h0l.09-.07h0l.09-.08,0,0,.06,0,0,0,0-.05,0,0,0,0,0,0,0,0,0,0,0,0,0,0,0,0v0l0,0,0,0a.21.21,0,0,1,0-.06v0l.06-.08h0a.43.43,0,0,1,0-.07l0,0,0-.06,0,0,0,0,0,0,0-.05,0,0v0h0a.5.5,0,0,1,0-.13Zm-2.12.89h0l-.14.1,0,0-.14.09,0,0-.16.09-.21.12-.08,0-.15.07-.21.1-.06,0-.17.06-.08,0-.15.06-.09,0-.14,0-.1,0-.14,0-.1,0-.14,0-.11,0-.14,0-.11,0-.13,0-.13,0h-.13l-.14,0-.13,0h-.4l-.22,0H43.77l-.12,0-.16,0h-.12l-.16,0-.12,0-.16,0-.11,0-.19,0-.08,0-.27-.07h0L42,42.54l-.09,0-.16-.06-.1,0-.16-.06-.1,0-.15-.06-.09,0L41,42.13l-.09-.05L40.76,42l-.07,0-.11-.07,0,0a.18.18,0,0,1-.07,0l0,0-.07,0,0,0-.07,0,0,0-.1-.07h0l-.09-.08,0,0L40,41.41l0,0-.06-.06,0,0-.08-.09,0,0-.06-.07,0,0a.36.36,0,0,1-.07-.1h0l-.06-.09,0,0-.06-.1h0l-.06-.11v0a.93.93,0,0,1,0-.1h0l0-.1v0a.56.56,0,0,1,0-.12v0l0-.12h0l0-.13h0s0-.08,0-.12v-.35s0,0,0-.08v0s0,0,0-.06V39.2a.24.24,0,0,1,0-.08v0l0-.1h0l0-.09v0a.93.93,0,0,1,0-.1v0a.56.56,0,0,0,0-.08v0l.06-.09h0l.06-.09v0l.08-.09a1.13,1.13,0,0,1,.1-.13h0l.11-.12h0l.11-.12,0,0,.13-.11h0l.14-.11,0,0,.15-.1,0,0,.16-.1h0l.19-.11h0l.19-.1.06,0,.14-.07.06,0,.19-.08h0l.21-.08.06,0,.16-.06.07,0,.18,0,0,0,.23-.06h.06l.17,0,.07,0,.18,0H43l.23,0h.06l.18,0h.08l.18,0h.06l.24,0h1.65l.12,0h.16l.12,0,.15,0,.12,0,.15,0,.15,0,.09,0,.17,0h.07l.23.06,0,0,.19.05.06,0,.16.06.07,0,.17.07h0l.21.09,0,0,.16.07,0,0,.19.1,0,0,.18.1.11.07,0,0,.07,0,0,0,0,0,0,0,.06,0,0,0,.07,0,0,0,.06,0,0,0a.27.27,0,0,1,.08.07h0l.09.08,0,0,.06.05,0,0,0,.05,0,0a.18.18,0,0,1,0,.07h0l.06.09,0,0,.05.06,0,0,0,.06,0,0,0,.06,0,0,0,.09h0s0,0,0,.08v0l0,.07v0l0,.07v0a.16.16,0,0,1,0,.09v0s0,.05,0,.07v0s0,0,0,.08h0s0,.07,0,.1v.12a.38.38,0,0,1,0,.1h0v.12s0,.06,0,.08v0s0,.07,0,.1v0a.36.36,0,0,1,0,.1h0l0,.11v0a.76.76,0,0,0,0,.11h0s0,.07,0,.11v0l-.06.12v0l-.06.12h0l-.07.12h0L49.9,41l0,0,0,0,0,0,0,0,0,0,0,0,0,0,0,0,0,0,0,0,0,0,0,0,0,0a.27.27,0,0,0-.08.07h0l-.08.06h0Z"/><path class="cls-7" d="M44.43,38.51s1.18-6-4.94-6.44a9.86,9.86,0,0,0-6.7,2s1-.15,3.52,3C38.5,39.86,44.43,38.51,44.43,38.51Z"/><path class="cls-8" d="M44.43,38.51s-2.46-7-11.64-4.43C32.79,34.08,41.07,31.68,44.43,38.51Z"/><path class="cls-8" d="M45.42,24v19l-.22,0H44V24Z"/><path class="cls-7" d="M45.21,38.17c1-1.08,10.3-6.24,10.91,5.24a9.07,9.07,0,0,0-5.72-.86C47,43.05,42.87,40.6,45.21,38.17Z"/><path class="cls-8" d="M45.21,38.17s7.22-.84,10.91,5.24a8.38,8.38,0,0,0-5.56-4.73C46.74,37.5,45.21,38.17,45.21,38.17Z"/><path class="cls-1" d="M50.29,33.61l1.72-1c1.75-1,2.84-3.18,2.85-6.26,0-6.2-4.34-13.74-9.73-16.85-2.72-1.57-5.17-1.72-7-.68l-1.72,1c1.78-1,4.23-.89,6.95.68,5.39,3.11,9.74,10.65,9.73,16.85C53.13,30.43,52,32.59,50.29,33.61Z"/><g class="cls-9"><path class="cls-1" d="M50.29,33.61l1.72-1c1.75-1,2.84-3.18,2.85-6.26,0-6.2-4.34-13.74-9.73-16.85-2.72-1.57-5.17-1.72-7-.68l-1.72,1c1.78-1,4.23-.89,6.95.68,5.39,3.11,9.74,10.65,9.73,16.85,0,3.08-1.1,5.24-2.85,6.26Z"/></g><path class="cls-10" d="M53.14,27.35c0-6.2-4.34-13.74-9.73-16.85-3.92-2.26-7.3-1.56-8.87,1.36a9,9,0,0,0-.93,4.22A17.41,17.41,0,0,0,34.74,22c1.63,4.49,4.87,8.77,8.6,10.93C48.73,36,53.12,33.54,53.14,27.35ZM43.35,31c-4.43-2.56-8-8.79-8-13.88S39,9.92,43.4,12.48s8,8.78,8,13.88S47.78,33.51,43.35,31Z"/><path class="cls-8" d="M35.33,17.07c0-5.09,3.64-7.15,8.07-4.59s8,8.78,8,13.88S47.78,33.51,43.35,31,35.32,22.16,35.33,17.07Zm8.07-3.44c-3.88-2.24-7-.44-7.06,4a15.48,15.48,0,0,0,7,12.15c3.88,2.24,7,.43,7.06-4a15.48,15.48,0,0,0-7-12.14Z"/><path class="cls-10" d="M36.34,17.65c0-4.46,3.18-6.26,7.06-4a15.48,15.48,0,0,1,7,12.14c0,4.46-3.18,6.27-7.06,4A15.48,15.48,0,0,1,36.34,17.65Z"/><path class="cls-5" d="M44.33,16v1a6.13,6.13,0,0,1,2.39,4.41L44.31,20a2.15,2.15,0,0,0-1.05-1.7l0,0c-.51-.3-.9-.21-.9.44,0,1.82,4.51,3.61,4.5,7.12,0,1.53-.9,2.31-2.52,1.7v.95l-1.86-1.08v-1a6.38,6.38,0,0,1-2.51-4.59l2.37,1.37a2.29,2.29,0,0,0,1.13,1.85c.65.38,1.07.25,1.07-.37,0-1.94-4.56-3.54-4.53-7.24,0-1.69,1-2.15,2.5-1.59v-.94Z"/><path class="cls-1" d="M43.41,10.5c-2.72-1.57-5.17-1.72-6.95-.68l1.72-1c1.78-1,4.23-.89,7,.68.29.17.58.35.87.55l-1.73,1C44,10.85,43.7,10.66,43.41,10.5Z"/><path class="cls-5" d="M52.31,17.29A20.75,20.75,0,0,0,46,10.05l-1.73,1a21,21,0,0,1,6.32,7.25,20,20,0,0,1,2.52,8.29l1.73-1A20.17,20.17,0,0,0,52.31,17.29Z"/><path class="cls-1" d="M54.86,26.35c0,3.08-1.1,5.24-2.85,6.26l-1.72,1c1.75-1,2.84-3.18,2.85-6.26,0-.25,0-.51,0-.77l1.73-1C54.85,25.84,54.86,26.1,54.86,26.35Z"/></svg>