<svg xmlns="http://www.w3.org/2000/svg" viewBox="0 0 90 90"><defs><style>.cls-1{fill:#fff;}.cls-2{fill:#bfc3c7;}.cls-3{fill:#e9e8e7;}.cls-4{fill:#123155;}.cls-5{fill:#cecdcc;}.cls-6{fill:#0061b2;}</style></defs><title>insurance-1</title><g id="Layer_2" data-name="Layer 2"><g id="Layer_1-2" data-name="Layer 1"><g id="Main-page"><g id="ScnSoft-COM-HomePage-1440_illustrations" data-name="ScnSoft-COM-HomePage-1440 illustrations"><g id="Industry"><g id="_8" data-name="8"><g id="icon_2_8" data-name="icon 2 8"><rect id="Rectangle" class="cls-1" width="90" height="90"/><g id="Group-35"><g id="Group-34"><path id="Fill-2" class="cls-2" d="M80.21,59.81h0V55l-9-2.34L51.14,41c-3.37-1.95-8.48-2.16-11.4-.47L19.22,52.42,9.64,54.69v4.8c0,.11,0,.22,0,.32v.07h0c.1,1.23,1,2.51,2.78,3.52L38.71,78.58c3.37,1.95,8.48,2.16,11.4.47L78.25,62.8a3.32,3.32,0,0,0,2-3"/><path id="Fill-4" class="cls-3" d="M78.25,57.68,50.11,73.93c-2.92,1.69-8,1.47-11.4-.47L12.42,58.28C9,56.33,8.68,53.39,11.6,51.7L39.75,35.45c2.92-1.69,8-1.48,11.4.47L77.43,51.1c3.37,1.95,3.74,4.89.82,6.58"/></g></g></g></g></g></g></g><path class="cls-4" d="M46.11,56.52a1,1,0,0,1-1-1V39.69h-1V55.49a2,2,0,0,0,4,0h-1A1,1,0,0,1,46.11,56.52Z"/><path class="cls-5" d="M44,17l.43.28a101.08,101.08,0,0,0-9.82,26.85,85.65,85.65,0,0,0-14.88-9C26.8,27.73,34.94,21.22,44,17Zm5.56-1.83-4.77,1.21a45.52,45.52,0,0,1,13.84.84l10.65,7.79c-6.45-3.77-14.61-6.38-22.73-8A69.24,69.24,0,0,1,69.6,34.17a60,60,0,0,0-13.84,9.45C53.46,33.9,50.18,24.8,45,17v-.26l-1-.17C33.29,18.43,26.35,21.9,19.6,25.5l8.15-7A53.82,53.82,0,0,1,44,16.43a2.21,2.21,0,0,0,.4,0h.12a27.36,27.36,0,0,0-6.23-1Z"/><path class="cls-6" d="M45,17A71.44,71.44,0,0,1,55.71,43.62a108.79,108.79,0,0,0-21.14.56,93.54,93.54,0,0,1,9.82-26.85Zm-1-.4V17a89.5,89.5,0,0,0-24.3,18.11,32.38,32.38,0,0,0-.1-9.72A72.9,72.9,0,0,1,44,16.65Zm1,0c8.83,1.62,17.25,3.71,24.3,8.35-1,2.56-.58,5.78.3,9.17A72.05,72.05,0,0,0,45,16.65Zm-6.69-1.21c2.07.09,4,.55,6.07.63,0,.06-.07.1-.07.13v.11a.28.28,0,0,1-.07.13c-5.42.79-11,1.34-16.44,2.13Zm11.27-.22,9.06,2L53.82,17l-4.69-.26-4.77-.3A22.94,22.94,0,0,1,49.53,15.21Z"/><path class="cls-4" d="M44.47,14a.49.49,0,0,1,.49.49V17a.92.92,0,0,1-.55.26c-.27,0-.43-.15-.43-.28V14.49A.49.49,0,0,1,44.47,14Z"/></g></g></svg>