<svg width="56" height="68" viewBox="0 0 56 68" fill="none" xmlns="http://www.w3.org/2000/svg">
<g clip-path="url(#clip0_4039_3614)">
<path d="M11.1256 23.5315L0.642822 34.0028L34.6801 68H55.6428M55.6428 36.6274H34.6801L26.8277 28.7836L37.3104 18.3123" fill="#42A5F5" fill-opacity="0.8"/>
<path d="M26.8276 7.84374L34.6801 -8.58307e-05H55.6428L37.3104 18.3123" fill="#0D47A1"/>
<path d="M16.3696 18.3069L26.8359 28.7644L37.3021 18.3096L26.8359 7.85211L16.3696 18.3069Z" fill="#42A5F5"/>
<path d="M26.8359 7.85211L37.3022 18.3069L38.7632 16.8475L28.2969 6.39273L26.8359 7.85211Z" fill="url(#paint0_linear_4039_3614)"/>
<path d="M26.8276 7.84392L42.3812 13.2115L37.3104 18.3152" fill="url(#paint1_linear_4039_3614)"/>
</g>
<defs>
<linearGradient id="paint0_linear_4039_3614" x1="32.071" y1="13.0814" x2="33.5305" y2="11.6204" gradientUnits="userSpaceOnUse">
<stop offset="0.2" stop-opacity="0.15"/>
<stop offset="0.85" stop-color="#616161" stop-opacity="0.01"/>
</linearGradient>
<linearGradient id="paint1_linear_4039_3614" x1="26.8313" y1="13.0793" x2="42.3846" y2="13.0793" gradientUnits="userSpaceOnUse">
<stop offset="0.2" stop-opacity="0.55"/>
<stop offset="0.85" stop-color="#616161" stop-opacity="0.01"/>
</linearGradient>
<clipPath id="clip0_4039_3614">
<rect width="55" height="68" fill="white" transform="matrix(1 0 0 -1 0.642822 68)"/>
</clipPath>
</defs>
</svg>
