<svg width="42" height="48" viewBox="0 0 42 48" fill="none" xmlns="http://www.w3.org/2000/svg">
<mask id="mask0_8214_11389" style="mask-type:luminance" maskUnits="userSpaceOnUse" x="0" y="0" width="42" height="48">
<path d="M0 0H41.693V48H0V0Z" fill="white"/>
</mask>
<g mask="url(#mask0_8214_11389)">
<path d="M34.8158 25.5096C34.757 19.4372 40.1106 16.5196 40.3518 16.3762C37.3397 12.2452 32.6568 11.6826 30.986 11.6164C27.0032 11.2359 23.2086 13.817 21.1849 13.817C19.1611 13.817 16.0431 11.6716 12.7368 11.7322C8.38927 11.7929 4.38293 14.0983 2.1415 17.7495C-2.37079 25.0849 0.988423 35.9666 5.38893 41.9287C7.54212 44.8408 10.1012 48.1225 13.4722 48.0011C16.7196 47.8798 17.9433 46.0321 21.8614 46.0321C25.7795 46.0321 26.8855 48.0011 30.3094 47.9404C33.7981 47.8743 36.0101 44.9622 38.1456 42.039C40.6106 38.6581 41.6284 35.382 41.6872 35.211C41.6107 35.1835 34.8864 32.7677 34.8158 25.5096Z" fill="black"/>
</g>
<path d="M28.3731 7.66632C30.1615 5.63668 31.3676 2.81282 31.0381 0C28.4613 0.0992761 25.3433 1.61048 23.4961 3.64012C21.8429 5.43261 20.3898 8.3061 20.784 11.0638C23.649 11.2734 26.5847 9.69045 28.3731 7.66632Z" fill="black"/>
</svg>
