<svg width="94" height="94" viewBox="0 0 94 94" fill="none" xmlns="http://www.w3.org/2000/svg">
<g id="java 1" clip-path="url(#clip0_7442_2526)">
<g id="Group">
<path id="Vector" fill-rule="evenodd" clip-rule="evenodd" d="M39.1946 49.6095C39.1946 49.6095 36.9494 50.9159 40.7941 51.3572C45.4532 51.8893 47.833 51.8127 52.9657 50.8418C52.9657 50.8418 54.317 51.6879 56.2033 52.4199C44.6939 57.3516 30.1557 52.1346 39.1946 49.6095ZM37.7877 43.1738C37.7877 43.1738 35.2689 45.0381 39.117 45.436C44.0941 45.95 48.0227 45.992 54.8251 44.6831C54.8251 44.6831 55.7644 45.6365 57.2425 46.1573C43.329 50.2268 27.833 46.4777 37.7877 43.1738Z" fill="#3174B9"/>
<path id="Vector_2" fill-rule="evenodd" clip-rule="evenodd" d="M49.6434 32.2555C52.4806 35.5214 48.8997 38.4585 48.8997 38.4585C48.8997 38.4585 56.1006 34.7421 52.7932 30.0863C49.7053 25.7466 47.3368 23.5907 60.1579 16.1558C60.1574 16.1553 40.0321 21.1802 49.6434 32.2555Z" fill="#CA3132"/>
<path id="Vector_3" fill-rule="evenodd" clip-rule="evenodd" d="M64.8644 54.37C64.8644 54.37 66.5264 55.7403 63.0337 56.8C56.3923 58.8116 35.3862 59.4183 29.5513 56.88C27.4553 55.9671 31.3878 54.7016 32.625 54.4344C33.9154 54.1554 34.6518 54.2062 34.6518 54.2062C32.3193 52.5637 19.5752 57.432 28.1795 58.8287C51.6419 62.633 70.9495 57.116 64.8644 54.37ZM40.275 36.505C40.275 36.505 29.5913 39.0432 36.4922 39.9659C39.407 40.3555 45.2131 40.2658 50.6256 39.8118C55.0478 39.4407 59.4865 38.6468 59.4865 38.6468C59.4865 38.6468 57.9284 39.3154 56.7995 40.0849C45.9485 42.9392 24.9897 41.6098 31.024 38.6921C36.126 36.2241 40.275 36.505 40.275 36.505ZM59.4421 47.2175C70.4716 41.4874 65.3721 35.9797 61.8117 36.722C60.9412 36.9039 60.5506 37.0609 60.5506 37.0609C60.5506 37.0609 60.8754 36.5527 61.4927 36.3343C68.5351 33.8594 73.9501 43.6356 59.2222 47.5071C59.2217 47.5071 59.3914 47.354 59.4421 47.2175Z" fill="#3174B9"/>
<path id="Vector_4" fill-rule="evenodd" clip-rule="evenodd" d="M52.7923 4.14709C52.7923 4.14709 58.8993 10.258 46.9984 19.6519C37.4544 27.1902 44.8225 31.487 46.9955 36.3982C41.4234 31.3719 37.3363 26.9463 40.078 22.8285C44.1031 16.7839 55.2565 13.8526 52.7923 4.14709Z" fill="#CA3132"/>
<path id="Vector_5" fill-rule="evenodd" clip-rule="evenodd" d="M41.3601 62.7495C51.9453 63.4264 68.2035 62.3735 68.5892 57.3638C68.5892 57.3638 67.849 59.2627 59.8401 60.7691C50.8042 62.4701 39.6576 62.2721 33.0488 61.1812C33.0488 61.1812 34.4031 62.3018 41.3601 62.7495Z" fill="#3174B9"/>
<path id="Vector_6" fill-rule="evenodd" clip-rule="evenodd" d="M68.0988 71.7333H67.777V71.5529H68.6455V71.7333H68.3237V72.6345H68.0988V71.7333ZM69.832 71.7782H69.8281L69.5082 72.634H69.3614L69.0434 71.7782H69.0395V72.634H68.8259V71.5524H69.1395L69.4341 72.3175L69.7286 71.5524H70.0392V72.634H69.8325V71.7782H69.832ZM39.6242 81.8889C38.6259 82.754 37.5706 83.2407 36.6231 83.2407C35.2733 83.2407 34.5408 82.4297 34.5408 81.132C34.5408 79.7271 35.3249 78.6991 38.4635 78.6991H39.6237V81.8889H39.6242ZM42.3795 84.9973V75.3747C42.3795 72.9154 40.977 71.2925 37.596 71.2925C35.6234 71.2925 33.8941 71.7796 32.4882 72.4004L32.893 74.1048C34.0005 73.6981 35.4322 73.3211 36.8377 73.3211C38.7854 73.3211 39.6237 74.1048 39.6237 75.7273V76.944H38.6503C33.919 76.944 31.784 78.7795 31.784 81.5392C31.784 83.9171 33.1909 85.2689 35.8394 85.2689C37.5419 85.2689 38.8137 84.5662 40.0012 83.5377L40.2172 84.9973H42.3795ZM51.5753 84.9973H48.1398L44.0029 71.5373H47.004L49.5715 79.8085L50.1431 82.2937C51.4383 78.6991 52.3576 75.0499 52.8174 71.5373H55.7356C54.9544 75.9691 53.547 80.8351 51.5753 84.9973ZM64.7603 81.8889C63.7591 82.754 62.7038 83.2407 61.7582 83.2407C60.4084 83.2407 59.6769 82.4297 59.6769 81.132C59.6769 79.7271 60.4615 78.6991 63.5982 78.6991H64.7603V81.8889ZM67.5166 84.9973V75.3747C67.5166 72.9154 66.1097 71.2925 62.7321 71.2925C60.7576 71.2925 59.0288 71.7796 57.6229 72.4004L58.0276 74.1048C59.1351 73.6981 60.5698 73.3211 61.9757 73.3211C63.9205 73.3211 64.7598 74.1048 64.7598 75.7273V76.944H63.7864C59.0546 76.944 56.9211 78.7795 56.9211 81.5392C56.9211 83.9171 58.3251 85.2689 60.9741 85.2689C62.678 85.2689 63.9478 84.5662 65.1382 83.5377L65.3552 84.9973H67.5166ZM28.763 87.2844C27.9778 88.4319 26.7079 89.3404 25.3196 89.8529L23.959 88.2505C25.0167 87.7077 25.9228 86.8314 26.3446 86.016C26.7079 85.2894 26.8596 84.355 26.8596 82.1186V66.7499H29.788V81.9064C29.788 84.8978 29.5491 86.1067 28.763 87.2844Z" fill="#CA3132"/>
</g>
</g>
<defs>
<clipPath id="clip0_7442_2526">
<rect width="94" height="94" fill="white"/>
</clipPath>
</defs>
</svg>
