<svg width="48" height="48" viewBox="0 0 48 48" fill="none" xmlns="http://www.w3.org/2000/svg">
<g id="Group">
<g id="Clip path group">
<mask id="mask0_8214_11886" style="mask-type:luminance" maskUnits="userSpaceOnUse" x="0" y="2" width="48" height="44">
<g id="A">
<path id="Vector" d="M0.953125 24.0002C0.953125 35.8999 11.2687 45.5469 23.9931 45.5469C36.7175 45.5469 47.0331 35.8999 47.0331 24.0002C47.0331 12.1005 36.7175 2.45354 23.9931 2.45354C11.2687 2.45354 0.953125 12.1007 0.953125 24.0002Z" fill="white"/>
</g>
</mask>
<g mask="url(#mask0_8214_11886)">
<g id="Group_2">
<path id="Vector_2" d="M0.953125 24.0002C0.953125 35.8999 11.2687 45.5469 23.9931 45.5469C36.7175 45.5469 47.0331 35.8999 47.0331 24.0002C47.0331 12.1005 36.7175 2.45354 23.9931 2.45354C11.2687 2.45354 0.953125 12.1007 0.953125 24.0002Z" fill="url(#paint0_radial_8214_11886)"/>
</g>
</g>
</g>
<g id="Clip path group_2">
<mask id="mask1_8214_11886" style="mask-type:luminance" maskUnits="userSpaceOnUse" x="0" y="0" width="48" height="48">
<g id="C">
<path id="Vector_3" d="M0 0H48V48H0V0Z" fill="white"/>
</g>
</mask>
<g mask="url(#mask1_8214_11886)">
<g id="Group_3">
<path id="Vector_4" d="M23.9994 43.9453C36.2269 43.9453 46.1394 35.0149 46.1394 23.9986C46.1394 12.9823 36.2269 4.05197 23.9994 4.05197C11.7719 4.05197 1.85938 12.9823 1.85938 23.9986C1.85938 35.0149 11.7719 43.9453 23.9994 43.9453Z" fill="#777BB3"/>
</g>
</g>
</g>
<g id="Clip path group_3">
<mask id="mask2_8214_11886" style="mask-type:luminance" maskUnits="userSpaceOnUse" x="0" y="6" width="48" height="42">
<g id="D">
<path id="Vector_5" d="M0 6H48V48H0V6Z" fill="white"/>
</g>
</mask>
<g mask="url(#mask2_8214_11886)">
<g id="Group_4">
<path id="Vector_6" d="M13.4857 29.1548C14.4911 29.1548 15.2417 28.8664 15.7166 28.298C16.1864 27.7354 16.5109 26.7603 16.681 25.4004C16.8396 24.1292 16.7791 23.2416 16.5015 22.7627C16.2176 22.2734 15.6037 22.0253 14.6771 22.0253H13.0704L12.1796 29.155H13.4856L13.4857 29.1548ZM8.23039 37.9372C8.1558 37.9372 8.08497 37.8854 8.03755 37.7957C8.01411 37.7514 7.99724 37.6997 7.98816 37.6441C7.97909 37.5885 7.97803 37.5305 7.98505 37.4742L10.3457 18.5807C10.3568 18.4921 10.3873 18.4123 10.4321 18.3549C10.4769 18.2975 10.5331 18.2661 10.5911 18.2661H15.679C17.278 18.2661 18.4681 18.9401 19.2162 20.2736C19.9683 21.6127 20.2006 23.4848 19.9065 25.8374C19.7868 26.7958 19.581 27.6859 19.2948 28.4831C19.0081 29.281 18.6295 30.0192 18.169 30.6777C17.6176 31.4804 16.9936 32.0624 16.316 32.4049C15.6491 32.7429 14.7926 32.9144 13.7703 32.9144H11.7101L11.1218 37.6228C11.1107 37.7114 11.0802 37.7912 11.0355 37.8486C10.9907 37.9061 10.9345 37.9375 10.8765 37.9375H8.23039V37.9372Z" fill="black"/>
<path id="Vector_7" d="M13.2686 22.416H14.6692C15.7876 22.416 16.1762 22.7977 16.3082 23.0252C16.5272 23.403 16.5685 24.1994 16.4277 25.3283C16.2696 26.5922 15.9764 27.4884 15.5562 27.9916C15.1261 28.5067 14.4267 28.7678 13.4779 28.7678H12.4749L13.2686 22.416ZM15.6711 17.8789H10.5832C10.4672 17.8789 10.3548 17.9417 10.2652 18.0566C10.1757 18.1714 10.1146 18.3311 10.0925 18.5083L7.73183 37.4021C7.71777 37.5146 7.71989 37.6307 7.73805 37.7419C7.7562 37.853 7.78994 37.9566 7.83684 38.0451C7.88374 38.1336 7.94265 38.2049 8.00934 38.2538C8.07602 38.3027 8.14884 38.3281 8.22258 38.3281H10.8684C10.9845 38.3281 11.0969 38.2653 11.1865 38.1505C11.276 38.0357 11.3371 37.876 11.3592 37.6988L11.9082 33.305H13.7624C14.8109 33.305 15.6936 33.1271 16.3857 32.7765C17.0974 32.4168 17.7524 31.8068 18.3319 30.9637C18.8112 30.2777 19.2069 29.5077 19.5052 28.6749C19.8036 27.842 20.0194 26.9127 20.1442 25.9135C20.4538 23.437 20.2023 21.454 19.3967 20.0198C18.5991 18.5993 17.3456 17.879 15.6712 17.879M11.8685 29.5457H13.4779C14.5446 29.5457 15.3392 29.2333 15.8612 28.608C16.3832 27.9826 16.7356 26.939 16.9186 25.4765C17.0936 24.0724 17.0139 23.0815 16.6794 22.5041C16.3449 21.9267 15.6744 21.6382 14.6694 21.6382H12.8566L11.8686 29.5456M15.6713 18.6567C17.2019 18.6567 18.3185 19.2815 19.0203 20.5311C19.7222 21.7808 19.9334 23.5253 19.6534 25.7649C19.5382 26.6875 19.3432 27.531 19.0688 28.2953C18.7944 29.0596 18.4353 29.7592 17.992 30.3932C17.4637 31.1623 16.8767 31.7103 16.2309 32.0369C15.5851 32.3643 14.7626 32.5272 13.7626 32.5272H11.4962L10.8687 37.5503H8.22291L10.5832 18.6567H15.6712" fill="white"/>
<path id="Vector_8" d="M25.9635 32.9139C25.8889 32.9139 25.8181 32.8621 25.7707 32.7724C25.7233 32.6827 25.7039 32.565 25.7182 32.4509L26.7624 24.0911C26.8617 23.2961 26.8372 22.7254 26.6935 22.4843C26.6055 22.3369 26.3411 22.0897 25.5595 22.0897H23.6677L22.3548 32.5991C22.3437 32.6877 22.3132 32.7675 22.2684 32.825C22.2236 32.8824 22.1674 32.9138 22.1094 32.9138H19.4844C19.4475 32.9138 19.4111 32.9011 19.3777 32.8767C19.3444 32.8522 19.3149 32.8166 19.2915 32.7723C19.268 32.728 19.2512 32.6763 19.2421 32.6207C19.233 32.5651 19.2319 32.5071 19.239 32.4508L21.5996 13.5572C21.6107 13.4687 21.6413 13.3888 21.686 13.3314C21.7308 13.274 21.787 13.2426 21.845 13.2426H24.47C24.5069 13.2426 24.5433 13.2553 24.5767 13.2798C24.61 13.3042 24.6395 13.3399 24.6629 13.3841C24.6864 13.4284 24.7033 13.4802 24.7123 13.5358C24.7214 13.5913 24.7225 13.6494 24.7155 13.7057L24.1458 18.2658H26.181C27.7314 18.2658 28.7826 18.691 29.3951 19.5657C30.0201 20.4581 30.214 21.8848 29.974 23.8072L28.8757 32.5993C28.8646 32.6879 28.8341 32.7678 28.7893 32.8252C28.7446 32.8827 28.6883 32.9141 28.6303 32.9141H25.9636L25.9635 32.9139Z" fill="black"/>
<path id="Vector_9" d="M24.4622 12.8557H21.8372C21.7212 12.8557 21.6087 12.9185 21.5192 13.0333C21.4296 13.1482 21.3685 13.3079 21.3464 13.4851L18.9857 32.3786C18.9717 32.4912 18.9738 32.6073 18.992 32.7184C19.0101 32.8296 19.0439 32.9332 19.0908 33.0217C19.1377 33.1102 19.1966 33.1815 19.2633 33.2304C19.33 33.2793 19.4028 33.3047 19.4766 33.3047H22.1016C22.2176 33.3047 22.3301 33.2419 22.4196 33.1271C22.5092 33.0123 22.5703 32.8525 22.5924 32.6753L23.866 22.4806H25.5518C26.3321 22.4806 26.4958 22.7399 26.5024 22.751C26.5497 22.8301 26.612 23.1969 26.5092 24.0188L25.4651 32.3786C25.451 32.4912 25.4531 32.6073 25.4713 32.7184C25.4895 32.8296 25.5232 32.9332 25.5701 33.0217C25.617 33.1102 25.6759 33.1815 25.7426 33.2304C25.8093 33.2793 25.8822 33.3047 25.9559 33.3047H28.6226C28.7386 33.3047 28.8511 33.2419 28.9406 33.1271C29.0302 33.0123 29.0913 32.8525 29.1134 32.6753L30.2117 23.8832C30.4695 21.8195 30.249 20.2712 29.5567 19.2814C28.8961 18.3376 27.7894 17.8788 26.1734 17.8788H24.4414L24.9533 13.7818C24.9674 13.6692 24.9653 13.5531 24.9471 13.4419C24.929 13.3307 24.8952 13.2272 24.8483 13.1387C24.8014 13.0501 24.7425 12.9788 24.6758 12.9299C24.6091 12.881 24.5362 12.8556 24.4625 12.8556M24.4625 13.6334L23.835 18.6565H26.1735C27.6449 18.6565 28.6598 19.0561 29.2185 19.8541C29.7772 20.6521 29.9443 21.9463 29.7212 23.7349L28.6228 32.5269H25.9562L27.0003 24.1674C27.1192 23.2164 27.0755 22.5677 26.8692 22.2219C26.6628 21.876 26.2237 21.7028 25.5521 21.7028H23.4539L22.1017 32.5269H19.4767L21.8374 13.6334H24.4624" fill="white"/>
<path id="Vector_10" d="M34.1302 29.1548C35.1356 29.1548 35.8862 28.8664 36.361 28.298C36.8308 27.7354 37.1553 26.7606 37.3255 25.4004C37.4841 24.1292 37.4237 23.2416 37.1459 22.7627C36.862 22.2734 36.2482 22.0253 35.3215 22.0253H33.7148L32.824 29.155H34.1301L34.1302 29.1548ZM28.875 37.9372C28.8004 37.9372 28.7296 37.8854 28.6822 37.7957C28.6587 37.7514 28.6418 37.6997 28.6327 37.6441C28.6236 37.5885 28.6226 37.5305 28.6296 37.4742L30.9902 18.5807C31.0013 18.4921 31.0319 18.4122 31.0767 18.3548C31.1215 18.2974 31.1777 18.266 31.2357 18.2661H36.3235C37.9227 18.2661 39.1127 18.9401 39.8608 20.2736C40.6129 21.6127 40.845 23.4846 40.5511 25.8374C40.4312 26.7958 40.2255 27.6859 39.9392 28.4831C39.6526 29.281 39.2739 30.0192 38.8134 30.6777C38.2621 31.4804 37.6381 32.0624 36.9604 32.4049C36.2935 32.7429 35.4371 32.9144 34.4147 32.9144H32.3543L31.7662 37.6228C31.7552 37.7114 31.7246 37.7913 31.6798 37.8487C31.635 37.9061 31.5788 37.9375 31.5207 37.9375H28.8749L28.875 37.9372Z" fill="black"/>
<path id="Vector_11" d="M33.9287 22.416H35.3293C36.4477 22.416 36.8362 22.7977 36.9682 23.0252C37.1874 23.403 37.2287 24.1994 37.0878 25.3282C36.9297 26.5921 36.6364 27.4884 36.2163 27.9916C35.7862 28.5067 35.0868 28.7678 34.138 28.7678H33.1352L33.9287 22.416ZM36.3312 17.8789H31.2433C31.1273 17.8789 31.0149 17.9417 30.9253 18.0566C30.8358 18.1714 30.7747 18.3311 30.7526 18.5083L28.392 37.4021C28.3779 37.5146 28.3801 37.6307 28.3982 37.7419C28.4164 37.853 28.4501 37.9566 28.497 38.0451C28.5439 38.1336 28.6028 38.2049 28.6695 38.2538C28.7362 38.3027 28.809 38.3281 28.8827 38.3281H31.5286C31.6446 38.3281 31.7571 38.2653 31.8466 38.1505C31.9362 38.0357 31.9973 37.876 32.0194 37.6988L32.5683 33.305H34.4225C35.471 33.305 36.3537 33.1271 37.0458 32.7765C37.7575 32.4168 38.4125 31.8068 38.9922 30.9635C39.4715 30.2777 39.8662 29.5077 40.1653 28.6749C40.4645 27.842 40.6795 26.9127 40.8043 25.9135C41.1139 23.4369 40.8624 21.4538 40.0568 20.0196C39.2592 18.5993 38.0057 17.879 36.3313 17.879M32.5287 29.5457H34.138C35.2047 29.5457 35.9993 29.2333 36.5213 28.608C37.0433 27.9826 37.3957 26.939 37.5787 25.4765C37.7538 24.0724 37.6741 23.0815 37.3395 22.5041C37.0049 21.9267 36.3345 21.6382 35.3295 21.6382H33.5167L32.5287 29.5456M36.3314 18.6567C37.862 18.6567 38.9786 19.2815 39.6804 20.5311C40.3822 21.7808 40.5935 23.5253 40.3135 25.7649C40.1982 26.6875 40.0033 27.531 39.7289 28.2953C39.4545 29.0596 39.0954 29.7592 38.6521 30.3932C38.1237 31.1623 37.5368 31.7103 36.891 32.0369C36.2452 32.3643 35.4227 32.5272 34.4227 32.5272H32.1563L31.5288 37.5503H28.883L31.2437 18.6568H36.3315" fill="white"/>
</g>
</g>
</g>
</g>
<defs>
<radialGradient id="paint0_radial_8214_11886" cx="0" cy="0" r="1" gradientUnits="userSpaceOnUse" gradientTransform="translate(14.7865 10.0288) scale(30.2548 53.7864)">
<stop stop-color="#AEB2D5"/>
<stop offset="0.3" stop-color="#AEB2D5"/>
<stop offset="0.75" stop-color="#484C89"/>
<stop offset="1" stop-color="#484C89"/>
</radialGradient>
</defs>
</svg>
