<svg width="30" height="30" viewBox="0 0 30 30" fill="none" xmlns="http://www.w3.org/2000/svg">
<path fill-rule="evenodd" clip-rule="evenodd" d="M12.3002 6.32816C11.8509 7.46052 11.4852 8.836 11.2381 10.3802C12.4336 10.2707 13.6967 10.2124 15 10.2124C16.3033 10.2124 17.5664 10.2707 18.7619 10.3802C18.5148 8.836 18.1492 7.46052 17.6999 6.32816C17.2681 5.23978 16.7776 4.42326 16.2816 3.89449C15.7875 3.36775 15.3541 3.19083 15 3.19083C14.646 3.19083 14.2126 3.36775 13.7184 3.89449C13.2224 4.42326 12.732 5.23978 12.3002 6.32816ZM10.5366 5.61696C9.97597 7.02986 9.54583 8.73187 9.28219 10.6135C7.98444 10.8064 6.80014 11.0639 5.77296 11.3745C4.57779 11.736 3.54141 12.1855 2.78261 12.7281C2.68675 12.7966 2.59213 12.8691 2.50006 12.9454C3.33762 7.72608 7.31393 3.567 12.4136 2.5C12.3883 2.52595 12.3632 2.55219 12.3384 2.5787C11.6224 3.34197 11.0214 4.39506 10.5366 5.61696ZM17.5864 2.5C17.6117 2.52595 17.6368 2.55219 17.6617 2.5787C18.3777 3.34197 18.9787 4.39506 19.4635 5.61696C20.0241 7.02986 20.4542 8.73187 20.7179 10.6135C22.0156 10.8064 23.1999 11.0639 24.2271 11.3745C25.4223 11.736 26.4586 12.1855 27.2174 12.7281C27.3133 12.7966 27.4079 12.8691 27.5 12.9454C26.6624 7.72608 22.6861 3.56699 17.5864 2.5ZM27.5001 17.0542C27.408 17.1306 27.3133 17.203 27.2174 17.2716C26.4586 17.8142 25.4223 18.2636 24.2271 18.6251C23.1999 18.9358 22.0156 19.1932 20.7179 19.3862C20.4542 21.2678 20.0241 22.9698 19.4635 24.3827C18.9787 25.6046 18.3777 26.6577 17.6617 27.421C17.6367 27.4476 17.6115 27.474 17.586 27.5C22.6861 26.4332 26.6626 22.2738 27.5001 17.0542ZM12.414 27.5C12.3886 27.474 12.3634 27.4476 12.3384 27.421C11.6224 26.6577 11.0214 25.6046 10.5366 24.3827C9.97597 22.9698 9.54583 21.2678 9.28219 19.3862C7.98444 19.1932 6.80013 18.9358 5.77296 18.6251C4.57779 18.2636 3.54141 17.8142 2.78261 17.2716C2.68673 17.203 2.59209 17.1306 2.5 17.0542C3.33746 22.2738 7.314 26.4332 12.414 27.5ZM6.31877 16.7909C7.12438 17.0346 8.05128 17.2458 9.07291 17.4153C9.01508 16.63 8.98506 15.8227 8.98506 14.9998C8.98506 14.177 9.01508 13.3696 9.07291 12.5844C8.05128 12.7539 7.12438 12.9651 6.31877 13.2088C5.22237 13.5404 4.40429 13.9162 3.88151 14.29C3.33406 14.6815 3.28666 14.9352 3.28666 14.9998C3.28666 15.0644 3.33406 15.3182 3.88151 15.7096C4.40429 16.0835 5.22237 16.4593 6.31877 16.7909ZM10.8845 14.9998C10.8845 15.9206 10.9243 16.8148 10.9992 17.6723C12.2479 17.8014 13.5936 17.8723 15 17.8723C16.4065 17.8723 17.7522 17.8014 19.0008 17.6723C19.0757 16.8148 19.1155 15.9206 19.1155 14.9998C19.1155 14.0791 19.0757 13.1849 19.0008 12.3273C17.7522 12.1983 16.4065 12.1274 15 12.1274C13.5936 12.1274 12.2479 12.1983 10.9992 12.3273C10.9243 13.1849 10.8845 14.0791 10.8845 14.9998ZM12.3002 23.6715C11.8509 22.5391 11.4852 21.1637 11.2381 19.6195C12.4336 19.729 13.6967 19.7873 15 19.7873C16.3033 19.7873 17.5664 19.729 18.7619 19.6195C18.5148 21.1637 18.1492 22.5391 17.6999 23.6715C17.2681 24.7599 16.7776 25.5764 16.2816 26.1052C15.7875 26.6319 15.3541 26.8088 15 26.8088C14.646 26.8088 14.2126 26.6319 13.7184 26.1052C13.2224 25.5764 12.732 24.7599 12.3002 23.6715ZM23.6813 16.7909C22.8757 17.0346 21.9488 17.2458 20.9271 17.4153C20.985 16.63 21.015 15.8227 21.015 14.9998C21.015 14.177 20.985 13.3696 20.9271 12.5844C21.9488 12.7539 22.8757 12.9651 23.6813 13.2088C24.7777 13.5404 25.5958 13.9162 26.1185 14.29C26.666 14.6815 26.7134 14.9352 26.7134 14.9998C26.7134 15.0644 26.666 15.3182 26.1185 15.7096C25.5958 16.0835 24.7777 16.4593 23.6813 16.7909Z" fill="#0EBAB1"/>
</svg>
