<svg width="30" height="30" viewBox="0 0 30 30" fill="none" xmlns="http://www.w3.org/2000/svg">
<path fill-rule="evenodd" clip-rule="evenodd" d="M13.75 3.75H16.25C22.4632 3.75 27.5 8.7868 27.5 15C27.5 21.2132 22.4632 26.25 16.25 26.25H7.5C4.73858 26.25 2.5 24.0114 2.5 21.25V15C2.5 8.7868 7.5368 3.75 13.75 3.75ZM19.4555 13.1174C19.7965 12.7277 19.757 12.1354 19.3673 11.7945C18.9777 11.4535 18.3854 11.493 18.0445 11.8827L14.4571 15.9825C14.347 16.1084 14.1573 16.1252 14.0267 16.0208L11.8356 14.2679C11.4313 13.9445 10.8414 14.0101 10.5179 14.4144C10.1945 14.8187 10.26 15.4086 10.6643 15.7321L12.8554 17.4849C13.7695 18.2162 15.0973 18.0982 15.8682 17.2172L19.4555 13.1174Z" fill="#0EBAB1"/>
</svg>
