<svg width="48" height="48" viewBox="0 0 48 48" fill="none" xmlns="http://www.w3.org/2000/svg">
<g id="Group">
<path id="Vector" d="M12.3906 6.42271C12.3906 3.1181 13.2781 1.32038 18.1781 0.464327C21.5047 -0.117855 25.7702 -0.190628 29.7489 0.464327C32.8914 0.982226 35.5364 3.31944 35.5364 6.42271V17.3253C35.5364 20.5229 32.9684 23.1422 29.7489 23.1422H18.1781C14.2511 23.1422 10.9414 26.4854 10.9414 30.265V35.4959H6.9629C3.59759 35.4959 1.63823 33.0731 0.815122 29.6828C-0.295146 25.1282 -0.248014 22.4145 0.815122 18.0525C1.73686 14.2472 4.68212 12.2394 8.04766 12.2394H23.9655V10.784H12.3903V6.42248L12.3906 6.42271Z" fill="url(#paint0_linear_8214_11442)"/>
<path id="Vector_2" d="M35.5364 41.3076C35.5364 44.6122 32.6641 46.2859 29.749 47.1207C25.3633 48.3791 21.8435 48.1865 18.1781 47.1207C15.117 46.2304 12.3906 44.4111 12.3906 41.3076V30.405C12.3906 27.2673 15.0101 24.588 18.1781 24.588H29.749C33.6031 24.588 36.9856 21.2623 36.9856 17.3197V12.2344H41.3242C44.6938 12.2344 46.2803 14.7341 47.1117 18.0475C48.2691 22.6491 48.3206 26.0905 47.1117 29.6778C45.9414 33.1621 44.6895 35.4908 41.3242 35.4908H23.9656V36.9463H35.5364V41.3076Z" fill="url(#paint1_linear_8214_11442)"/>
<path id="Vector_3" d="M15.2773 5.69881C15.2773 4.49175 16.2462 3.51562 17.4469 3.51562C18.6429 3.51562 19.6164 4.49151 19.6164 5.69881C19.6164 6.90198 18.6431 7.87762 17.4469 7.87762C16.2467 7.87762 15.2773 6.90174 15.2773 5.69881ZM28.2969 42.0362C28.2969 40.833 29.2701 39.8574 30.4664 39.8574C31.6665 39.8574 32.6359 40.8332 32.6359 42.0362C32.6359 43.2432 31.667 44.2193 30.4664 44.2193C29.2704 44.2193 28.2969 43.2435 28.2969 42.0362Z" fill="white"/>
</g>
<defs>
<linearGradient id="paint0_linear_8214_11442" x1="35.5366" y1="13.799" x2="0.000283689" y2="13.516" gradientUnits="userSpaceOnUse">
<stop stop-color="#366A96"/>
<stop offset="1" stop-color="#3679B0"/>
</linearGradient>
<linearGradient id="paint1_linear_8214_11442" x1="47.9989" y1="30.1141" x2="-22.346" y2="30.1141" gradientUnits="userSpaceOnUse">
<stop stop-color="#FFC836"/>
<stop offset="1" stop-color="#FFE873"/>
</linearGradient>
</defs>
</svg>
