<svg width="48" height="42" viewBox="0 0 48 42" fill="none" xmlns="http://www.w3.org/2000/svg">
<path id="Vector" d="M13.8499 0C12.5535 0.00273315 11.2845 0.717907 10.632 1.8088L0.481922 18.9431C-0.160641 20.0369 -0.160641 21.4667 0.481922 22.5605L10.632 39.695C11.2845 40.7859 12.5535 41.5012 13.8499 41.5038H34.1502C35.4465 41.501 36.7155 40.7859 37.368 39.695L47.5181 22.5605C48.1607 21.4667 48.1605 20.0369 47.5181 18.9431L37.368 1.8088C36.7155 0.717725 35.4465 0.00255094 34.1502 0L13.8499 0ZM14.0342 10.0239C14.0622 10.0212 14.0914 10.0212 14.1194 10.0239H17.6207C17.6985 10.0264 17.7744 10.0479 17.8414 10.0865C17.9083 10.1251 17.9641 10.1796 18.0036 10.2448L23.9434 20.5309C23.9734 20.5819 23.9925 20.6384 23.9997 20.6967C24.0072 20.6384 24.0263 20.5819 24.0563 20.5309L29.9818 10.2448C30.0227 10.1777 30.0807 10.1221 30.1503 10.0834C30.2199 10.0447 30.2986 10.0242 30.3788 10.0239H33.8803C34.1903 10.0265 34.4226 10.406 34.2773 10.6728L28.4792 20.7519L34.2773 30.8172C34.4363 31.0854 34.1985 31.4824 33.8803 31.4799H30.3788C30.2972 31.4782 30.2175 31.4556 30.1478 31.4144C30.0781 31.3732 30.0209 31.3148 29.9818 31.2452L24.0563 20.9589C24.0263 20.908 24.0072 20.8514 23.9998 20.7932C23.9926 20.8516 23.9734 20.908 23.9434 20.9591L18.0034 31.2452C17.9657 31.3128 17.9107 31.3699 17.8437 31.411C17.7767 31.4521 17.7 31.4758 17.6209 31.4799H14.1192C13.801 31.4826 13.5632 31.0854 13.7222 30.8172L19.5203 20.7519L13.7222 10.6728C13.5833 10.4293 13.753 10.0758 14.0342 10.0239Z" fill="#3498DB"/>
</svg>
